<svg viewBox="0 0 140 86" fill="none" xmlns="http://www.w3.org/2000/svg"><g clip-path="url(#a)"><path d="M10.04 59.08c1.776 0 3.328.36 4.656 1.08 1.344.704 2.376 1.696 3.096 2.976.72 1.28 1.08 2.744 1.08 4.392 0 1.632-.368 3.088-1.104 4.368-.72 1.28-1.752 2.288-3.096 3.024C13.344 75.64 11.8 76 10.04 76H3.344V59.08h6.696Zm-.36 12.768c1.376 0 2.456-.376 3.24-1.128.784-.752 1.176-1.816 1.176-3.192 0-1.392-.392-2.464-1.176-3.216-.784-.768-1.864-1.152-3.24-1.152H8.048v8.688H9.68Zm25.6164-2.736c0 .368-.024.736-.072 1.104h-8.904c.048.736.248 1.288.6 1.656.368.352.832.528 1.392.528.784 0 1.344-.352 1.68-1.056h5.016c-.208.928-.616 1.76-1.224 2.496-.592.72-1.344 1.288-2.256 1.704-.912.416-1.92.624-3.024.624-1.328 0-2.512-.28-3.552-.84-1.024-.56-1.832-1.36-2.424-2.4-.576-1.04-.864-2.264-.864-3.672 0-1.408.288-2.624.864-3.648.576-1.04 1.376-1.84 2.4-2.4 1.04-.56 2.232-.84 3.576-.84 1.328 0 2.504.272 3.528.816 1.024.544 1.824 1.328 2.4 2.352.576 1.008.864 2.2.864 3.576Zm-4.8-1.176c0-.576-.192-1.024-.576-1.344-.384-.336-.864-.504-1.44-.504s-1.048.16-1.416.48c-.368.304-.608.76-.72 1.368h4.152Zm14.6211 3.624 2.52-9.024h5.016L48.0215 76h-5.856l-4.632-13.464h5.016l2.568 9.024Zm16.8339 4.608c-1.344 0-2.552-.28-3.624-.84-1.056-.56-1.888-1.36-2.496-2.4-.608-1.04-.912-2.264-.912-3.672 0-1.392.304-2.608.912-3.648.624-1.04 1.464-1.84 2.52-2.4 1.072-.56 2.28-.84 3.624-.84 1.344 0 2.544.28 3.6.84 1.072.56 1.912 1.36 2.52 2.4.624 1.04.936 2.256.936 3.648 0 1.392-.312 2.616-.936 3.672-.608 1.04-1.448 1.84-2.52 2.4-1.072.56-2.28.84-3.624.84Zm0-4.08c.656 0 1.2-.24 1.632-.72.448-.496.672-1.2.672-2.112 0-.912-.224-1.608-.672-2.088-.432-.48-.968-.72-1.608-.72-.64 0-1.176.24-1.608.72-.432.48-.648 1.176-.648 2.088 0 .928.208 1.632.624 2.112.416.48.952.72 1.608.72ZM77.0893 58.24V76h-4.704V58.24h4.704Zm10.3828 17.928c-1.344 0-2.552-.28-3.624-.84-1.056-.56-1.888-1.36-2.496-2.4-.608-1.04-.912-2.264-.912-3.672 0-1.392.304-2.608.912-3.648.624-1.04 1.464-1.84 2.52-2.4 1.072-.56 2.28-.84 3.624-.84 1.344 0 2.544.28 3.6.84 1.072.56 1.912 1.36 2.52 2.4.624 1.04.936 2.256.936 3.648 0 1.392-.312 2.616-.936 3.672-.608 1.04-1.448 1.84-2.52 2.4-1.072.56-2.28.84-3.624.84Zm0-4.08c.656 0 1.2-.24 1.632-.72.448-.496.672-1.2.672-2.112 0-.912-.224-1.608-.672-2.088-.432-.48-.968-.72-1.608-.72-.64 0-1.176.24-1.608.72-.432.48-.648 1.176-.648 2.088 0 .928.208 1.632.624 2.112.416.48.952.72 1.608.72Zm15.4019-9.72c.912 0 1.704.184 2.376.552.688.368 1.216.864 1.584 1.488v-1.872h4.704v13.32c0 1.264-.24 2.4-.72 3.408-.48 1.024-1.232 1.84-2.256 2.448-1.008.608-2.288.912-3.84.912-2.08 0-3.744-.488-4.9921-1.464-1.248-.976-1.96-2.304-2.136-3.984h4.6321c.096.432.336.768.72 1.008.384.24.88.36 1.488.36 1.6 0 2.4-.896 2.4-2.688v-1.728c-.368.624-.896 1.12-1.584 1.488-.672.368-1.464.552-2.376.552-1.072 0-2.048-.28-2.9281-.84-.864-.56-1.552-1.36-2.064-2.4-.496-1.056-.744-2.28-.744-3.672 0-1.392.248-2.608.744-3.648.512-1.04 1.2-1.84 2.064-2.4.8801-.56 1.8561-.84 2.9281-.84Zm3.96 6.888c0-.864-.24-1.544-.72-2.04-.464-.496-1.04-.744-1.728-.744-.704 0-1.288.248-1.752.744-.464.48-.696 1.16-.696 2.04 0 .864.232 1.552.696 2.064.464.496 1.048.744 1.752.744.688 0 1.264-.248 1.728-.744.48-.496.72-1.184.72-2.064Zm11.2-7.968c-.832 0-1.504-.224-2.016-.672-.496-.464-.744-1.04-.744-1.728 0-.704.248-1.288.744-1.752.512-.464 1.184-.696 2.016-.696.816 0 1.472.232 1.968.696.512.464.768 1.048.768 1.752 0 .688-.256 1.264-.768 1.728-.496.448-1.152.672-1.968.672Zm2.328 1.248V76h-4.704V62.536h4.704Zm3.351 6.72c0-1.392.288-2.608.864-3.648.576-1.04 1.376-1.84 2.4-2.4 1.04-.56 2.224-.84 3.552-.84 1.712 0 3.152.472 4.32 1.416 1.168.928 1.92 2.232 2.256 3.912h-4.992c-.288-.88-.848-1.32-1.68-1.32-.592 0-1.064.248-1.416.744-.336.48-.504 1.192-.504 2.136 0 .944.168 1.664.504 2.16.352.496.824.744 1.416.744.848 0 1.408-.44 1.68-1.32h4.992c-.336 1.664-1.088 2.968-2.256 3.912-1.168.944-2.608 1.416-4.32 1.416-1.328 0-2.512-.28-3.552-.84-1.024-.56-1.824-1.36-2.4-2.4-.576-1.04-.864-2.264-.864-3.672Z" fill="#CA3D38"/><path d="M8.04 59.08c1.776 0 3.328.36 4.656 1.08 1.344.704 2.376 1.696 3.096 2.976.72 1.28 1.08 2.744 1.08 4.392 0 1.632-.368 3.088-1.104 4.368-.72 1.28-1.752 2.288-3.096 3.024C11.344 75.64 9.8 76 8.04 76H1.344V59.08H8.04Zm-.36 12.768c1.376 0 2.456-.376 3.24-1.128.784-.752 1.176-1.816 1.176-3.192 0-1.392-.392-2.464-1.176-3.216-.784-.768-1.864-1.152-3.24-1.152H6.048v8.688H7.68Zm25.6164-2.736c0 .368-.024.736-.072 1.104h-8.904c.048.736.248 1.288.6 1.656.368.352.832.528 1.392.528.784 0 1.344-.352 1.68-1.056h5.016c-.208.928-.616 1.76-1.224 2.496-.592.72-1.344 1.288-2.256 1.704-.912.416-1.92.624-3.024.624-1.328 0-2.512-.28-3.552-.84-1.024-.56-1.832-1.36-2.424-2.4-.576-1.04-.864-2.264-.864-3.672 0-1.408.288-2.624.864-3.648.576-1.04 1.376-1.84 2.4-2.4 1.04-.56 2.232-.84 3.576-.84 1.328 0 2.504.272 3.528.816 1.024.544 1.824 1.328 2.4 2.352.576 1.008.864 2.2.864 3.576Zm-4.8-1.176c0-.576-.192-1.024-.576-1.344-.384-.336-.864-.504-1.44-.504s-1.048.16-1.416.48c-.368.304-.608.76-.72 1.368h4.152Zm14.6211 3.624 2.52-9.024h5.016L46.0215 76h-5.856l-4.632-13.464h5.016l2.568 9.024Zm16.8339 4.608c-1.344 0-2.552-.28-3.624-.84-1.056-.56-1.888-1.36-2.496-2.4-.608-1.04-.912-2.264-.912-3.672 0-1.392.304-2.608.912-3.648.624-1.04 1.464-1.84 2.52-2.4 1.072-.56 2.28-.84 3.624-.84 1.344 0 2.544.28 3.6.84 1.072.56 1.912 1.36 2.52 2.4.624 1.04.936 2.256.936 3.648 0 1.392-.312 2.616-.936 3.672-.608 1.04-1.448 1.84-2.52 2.4-1.072.56-2.28.84-3.624.84Zm0-4.08c.656 0 1.2-.24 1.632-.72.448-.496.672-1.2.672-2.112 0-.912-.224-1.608-.672-2.088-.432-.48-.968-.72-1.608-.72-.64 0-1.176.24-1.608.72-.432.48-.648 1.176-.648 2.088 0 .928.208 1.632.624 2.112.416.48.952.72 1.608.72ZM75.0893 58.24V76h-4.704V58.24h4.704Zm10.3828 17.928c-1.344 0-2.552-.28-3.624-.84-1.056-.56-1.888-1.36-2.496-2.4-.608-1.04-.912-2.264-.912-3.672 0-1.392.304-2.608.912-3.648.624-1.04 1.464-1.84 2.52-2.4 1.072-.56 2.28-.84 3.624-.84 1.344 0 2.544.28 3.6.84 1.072.56 1.912 1.36 2.52 2.4.624 1.04.936 2.256.936 3.648 0 1.392-.312 2.616-.936 3.672-.608 1.04-1.448 1.84-2.52 2.4-1.072.56-2.28.84-3.624.84Zm0-4.08c.656 0 1.2-.24 1.632-.72.448-.496.672-1.2.672-2.112 0-.912-.224-1.608-.672-2.088-.432-.48-.968-.72-1.608-.72-.64 0-1.176.24-1.608.72-.432.48-.648 1.176-.648 2.088 0 .928.208 1.632.624 2.112.416.48.952.72 1.608.72Zm15.4019-9.72c.912 0 1.704.184 2.376.552.688.368 1.216.864 1.584 1.488v-1.872h4.704v13.32c0 1.264-.24 2.4-.72 3.408-.48 1.024-1.232 1.84-2.256 2.448-1.008.608-2.288.912-3.84.912-2.08 0-3.7441-.488-4.9921-1.464-1.248-.976-1.96-2.304-2.136-3.984h4.6321c.096.432.336.768.72 1.008.384.24.88.36 1.488.36 1.6 0 2.4-.896 2.4-2.688v-1.728c-.368.624-.896 1.12-1.584 1.488-.672.368-1.464.552-2.376.552-1.0721 0-2.0481-.28-2.9281-.84-.864-.56-1.552-1.36-2.064-2.4-.496-1.056-.744-2.28-.744-3.672 0-1.392.248-2.608.744-3.648.512-1.04 1.2-1.84 2.064-2.4.88-.56 1.856-.84 2.9281-.84Zm3.96 6.888c0-.864-.24-1.544-.72-2.04-.464-.496-1.04-.744-1.728-.744-.704 0-1.288.248-1.752.744-.464.48-.6961 1.16-.6961 2.04 0 .864.2321 1.552.6961 2.064.464.496 1.048.744 1.752.744.688 0 1.264-.248 1.728-.744.48-.496.72-1.184.72-2.064Zm11.2-7.968c-.832 0-1.504-.224-2.016-.672-.496-.464-.744-1.04-.744-1.728 0-.704.248-1.288.744-1.752.512-.464 1.184-.696 2.016-.696.816 0 1.472.232 1.968.696.512.464.768 1.048.768 1.752 0 .688-.256 1.264-.768 1.728-.496.448-1.152.672-1.968.672Zm2.328 1.248V76h-4.704V62.536h4.704Zm3.351 6.72c0-1.392.288-2.608.864-3.648.576-1.04 1.376-1.84 2.4-2.4 1.04-.56 2.224-.84 3.552-.84 1.712 0 3.152.472 4.32 1.416 1.168.928 1.92 2.232 2.256 3.912h-4.992c-.288-.88-.848-1.32-1.68-1.32-.592 0-1.064.248-1.416.744-.336.48-.504 1.192-.504 2.136 0 .944.168 1.664.504 2.16.352.496.824.744 1.416.744.848 0 1.408-.44 1.68-1.32h4.992c-.336 1.664-1.088 2.968-2.256 3.912-1.168.944-2.608 1.416-4.32 1.416-1.328 0-2.512-.28-3.552-.84-1.024-.56-1.824-1.36-2.4-2.4-.576-1.04-.864-2.264-.864-3.672Z" fill="#36487B"/><path d="M9.04 59.08c1.776 0 3.328.36 4.656 1.08 1.344.704 2.376 1.696 3.096 2.976.72 1.28 1.08 2.744 1.08 4.392 0 1.632-.368 3.088-1.104 4.368-.72 1.28-1.752 2.288-3.096 3.024C12.344 75.64 10.8 76 9.04 76H2.344V59.08H9.04Zm-.36 12.768c1.376 0 2.456-.376 3.24-1.128.784-.752 1.176-1.816 1.176-3.192 0-1.392-.392-2.464-1.176-3.216-.784-.768-1.864-1.152-3.24-1.152H7.048v8.688H8.68Zm25.6164-2.736c0 .368-.024.736-.072 1.104h-8.904c.048.736.248 1.288.6 1.656.368.352.832.528 1.392.528.784 0 1.344-.352 1.68-1.056h5.016c-.208.928-.616 1.76-1.224 2.496-.592.72-1.344 1.288-2.256 1.704-.912.416-1.92.624-3.024.624-1.328 0-2.512-.28-3.552-.84-1.024-.56-1.832-1.36-2.424-2.4-.576-1.04-.864-2.264-.864-3.672 0-1.408.288-2.624.864-3.648.576-1.04 1.376-1.84 2.4-2.4 1.04-.56 2.232-.84 3.576-.84 1.328 0 2.504.272 3.528.816 1.024.544 1.824 1.328 2.4 2.352.576 1.008.864 2.2.864 3.576Zm-4.8-1.176c0-.576-.192-1.024-.576-1.344-.384-.336-.864-.504-1.44-.504s-1.048.16-1.416.48c-.368.304-.608.76-.72 1.368h4.152Zm14.6211 3.624 2.52-9.024h5.016L47.0215 76h-5.856l-4.632-13.464h5.016l2.568 9.024Zm16.8339 4.608c-1.344 0-2.552-.28-3.624-.84-1.056-.56-1.888-1.36-2.496-2.4-.608-1.04-.912-2.264-.912-3.672 0-1.392.304-2.608.912-3.648.624-1.04 1.464-1.84 2.52-2.4 1.072-.56 2.28-.84 3.624-.84 1.344 0 2.544.28 3.6.84 1.072.56 1.912 1.36 2.52 2.4.624 1.04.936 2.256.936 3.648 0 1.392-.312 2.616-.936 3.672-.608 1.04-1.448 1.84-2.52 2.4-1.072.56-2.28.84-3.624.84Zm0-4.08c.656 0 1.2-.24 1.632-.72.448-.496.672-1.2.672-2.112 0-.912-.224-1.608-.672-2.088-.432-.48-.968-.72-1.608-.72-.64 0-1.176.24-1.608.72-.432.48-.648 1.176-.648 2.088 0 .928.208 1.632.624 2.112.416.48.952.72 1.608.72ZM76.0893 58.24V76h-4.704V58.24h4.704Zm10.3828 17.928c-1.344 0-2.552-.28-3.624-.84-1.056-.56-1.888-1.36-2.496-2.4-.608-1.04-.912-2.264-.912-3.672 0-1.392.304-2.608.912-3.648.624-1.04 1.464-1.84 2.52-2.4 1.072-.56 2.28-.84 3.624-.84 1.344 0 2.544.28 3.6.84 1.072.56 1.912 1.36 2.52 2.4.624 1.04.936 2.256.936 3.648 0 1.392-.312 2.616-.936 3.672-.608 1.04-1.448 1.84-2.52 2.4-1.072.56-2.28.84-3.624.84Zm0-4.08c.656 0 1.2-.24 1.632-.72.448-.496.672-1.2.672-2.112 0-.912-.224-1.608-.672-2.088-.432-.48-.968-.72-1.608-.72-.64 0-1.176.24-1.608.72-.432.48-.648 1.176-.648 2.088 0 .928.208 1.632.624 2.112.416.48.952.72 1.608.72Zm15.4019-9.72c.912 0 1.704.184 2.376.552.688.368 1.216.864 1.584 1.488v-1.872h4.704v13.32c0 1.264-.24 2.4-.72 3.408-.48 1.024-1.232 1.84-2.256 2.448-1.008.608-2.288.912-3.84.912-2.08 0-3.7441-.488-4.9921-1.464-1.248-.976-1.96-2.304-2.136-3.984h4.6321c.096.432.336.768.72 1.008.384.24.88.36 1.488.36 1.6 0 2.4-.896 2.4-2.688v-1.728c-.368.624-.896 1.12-1.584 1.488-.672.368-1.464.552-2.376.552-1.072 0-2.0481-.28-2.9281-.84-.864-.56-1.552-1.36-2.064-2.4-.496-1.056-.744-2.28-.744-3.672 0-1.392.248-2.608.744-3.648.512-1.04 1.2-1.84 2.064-2.4.88-.56 1.8561-.84 2.9281-.84Zm3.96 6.888c0-.864-.24-1.544-.72-2.04-.464-.496-1.04-.744-1.728-.744-.704 0-1.288.248-1.752.744-.464.48-.696 1.16-.696 2.04 0 .864.232 1.552.696 2.064.464.496 1.048.744 1.752.744.688 0 1.264-.248 1.728-.744.48-.496.72-1.184.72-2.064Zm11.2-7.968c-.832 0-1.504-.224-2.016-.672-.496-.464-.744-1.04-.744-1.728 0-.704.248-1.288.744-1.752.512-.464 1.184-.696 2.016-.696.816 0 1.472.232 1.968.696.512.464.768 1.048.768 1.752 0 .688-.256 1.264-.768 1.728-.496.448-1.152.672-1.968.672Zm2.328 1.248V76h-4.704V62.536h4.704Zm3.351 6.72c0-1.392.288-2.608.864-3.648.576-1.04 1.376-1.84 2.4-2.4 1.04-.56 2.224-.84 3.552-.84 1.712 0 3.152.472 4.32 1.416 1.168.928 1.92 2.232 2.256 3.912h-4.992c-.288-.88-.848-1.32-1.68-1.32-.592 0-1.064.248-1.416.744-.336.48-.504 1.192-.504 2.136 0 .944.168 1.664.504 2.16.352.496.824.744 1.416.744.848 0 1.408-.44 1.68-1.32h4.992c-.336 1.664-1.088 2.968-2.256 3.912-1.168.944-2.608 1.416-4.32 1.416-1.328 0-2.512-.28-3.552-.84-1.024-.56-1.824-1.36-2.4-2.4-.576-1.04-.864-2.264-.864-3.672Z" fill="#030712"/><path d="m99.4405 12.184.256.512c.0853.128.1493.2773.192.448h-2.368c.0853.1707.1707.384.256.64l.256.64h-10.048l.384 1.28h5.184l.192.96h-.704c.0427.0853.064.192.064.32s.0213.2347.064.32h-1.728l.064.64h1.344v.512c.0427.128.064.2773.064.448h2.368c.0427.1707.064.32.064.448v.512h-6.016v.64c.0427.2133.064.4267.064.64h1.344v.64c.0427.2133.064.4267.064.64h2.304v.32h-.896v1.28h.256v.96h3.776v1.28h-3.584v.64h-.384v.32c0 .128-.0213.2347-.064.32h-1.152v1.28h.128c-.0427.128-.064.2987-.064.512v.128h2.368c0 .1707-.0213.3413-.064.512v.448h.96c0 .2133-.0213.4267-.064.64 0 .2133-.0213.4267-.064.64h-1.408c-.0427.0853-.064.192-.064.32s-.0213.2347-.064.32h-7.68c0 .1707-.0427.384-.128.64h6.72c-.0853.256-.128.4693-.128.64h.96l-.128.512c0 .128-.0427.2773-.128.448l-.192.64h-1.856l-.128.32h3.008c-.0853.1707-.128.2773-.128.32h-1.92l-.128.32h-.064l-.256.64a4.474 4.474 0 0 1-.32.64h-.96l-.704 1.28h1.088l-.384.64h.064c-.0853.0853-.1707.192-.256.32-.0853.128-.1707.2347-.256.32h-.448c-.128.128-.2133.2347-.256.32l-.384.512-.448.448h-.192a10.504 10.504 0 0 1-.704.64 10.504 10.504 0 0 1-.704.64h.576l-1.344.96h.064c-.3413.2133-.704.4267-1.088.64-.384.2133-.7893.4267-1.216.64h-.064c-.4267.2133-.96.4267-1.6.64h.064c-.8533.2987-1.7493.5547-2.688.768a31.2076 31.2076 0 0 1-2.88.512h1.344a32.394 32.394 0 0 1-2.112.192c-.7253.0427-1.472.064-2.24.064h-18.752c-.384 0-.6827-.0853-.896-.256h-1.344c-.4267-.256-.6827-.6827-.768-1.28h-.064v-.64h.128v-1.28h-.128v-.96h-.512v-1.28h.192v-.96h-.064v-.32h.512v-.64h-.064v-.64h-1.152v-1.28h1.024v-1.28h.064v-.32h1.92v-.32h-2.944v-.32h1.856v-1.6h-.896v-.64h-.064v-.64h1.664v-.64h-7.36v-1.28h-.256v-.96h.832v-.64h2.624v-1.28h1.664v-.64h.96v-.64h1.024v-1.28h1.472v-.96h1.408v-1.28h-4.288v-.32h-1.408v-1.28h-2.816v-1.28h7.296v-.96h-5.632v-.96h3.072v-.64h-.128v-.64h-.512v-.96h-2.752v-1.28h9.984v-1.28h2.368v-.96h-11.52v-1.28h7.552v-.32h-5.952v-.32h12.096v-1.28h-1.536v-.32h-15.232v-1.28h1.856v-.96h3.968v-.32h2.112v-.64h-1.152v-.32h-1.344v-.64h.128v-.768c.0427-.0853.064-.1493.064-.192h.256c.2133-.896.7893-1.344 1.728-1.344h18.432c3.2853 0 6.272.448 8.96 1.344h-.256c.768.256 1.5573.576 2.368.96h-.128a4.474 4.474 0 0 1 .64.32c.256.0853.4693.192.64.32h1.344l.576.32h1.088c.2133.0853.384.192.512.32.1707.128.3413.2347.512.32h-2.112l.256.128a.4189.4189 0 0 1 .192.192h-3.968l1.216.96h-1.92c.4693.384.896.8107 1.28 1.28h15.232l.128.128c.0427.0427.0853.1067.128.192h1.6c.1707.1707.3413.384.5125.64.17.2133.32.4267.448.64H88.3685l.128.128c.0427.0427.0853.1067.128.192h5.952l.192.32h-7.552c.2987.4267.5333.8533.704 1.28h11.52Zm-22.592 4.48a3.428 3.428 0 0 0-.96-.96h-5.184c-.9387-.6827-2.0907-1.024-3.456-1.024h-3.84v1.024h2.752v.96h.512v.64h.128v.64h-3.072v.96h5.632v.96h-7.296v1.28h2.816v1.28h1.408v.32h4.288v1.28h-1.408v.96h-1.472v1.28h-1.024v.64h-.96v.64h-1.664v1.28h-2.624v.64h-.832v.96h.256v1.28h7.36v.64h-1.664v.64h.064v.64h.896v.896h4.16c1.2373 0 2.2827-.2987 3.136-.896h-1.024l.384-.256c.128-.128.2347-.256.32-.384h-6.656l.256-.256c.0853-.128.1493-.256.192-.384h7.68c.0853-.0853.1493-.1707.192-.256l.128-.384h1.472a3.6542 3.6542 0 0 0 .192-.64l.128-.64h-.96c.0427-.1707.064-.32.064-.448 0-.1707.0213-.3413.064-.512h-2.368v-.384c.0427-.0853.064-.1707.064-.256h-.128v-.64c0-.256.0213-.4693.064-.64h1.152v-.64h.384l.064-.64h3.584v-1.28h-3.776v-.96h-.256v-1.28h.896v-.32h-2.368v-1.28h-1.408v-.64c0-.2133-.0213-.4267-.064-.64h6.016V19.8c0-.1707-.0213-.32-.064-.448v-.448h-2.368a6.144 6.144 0 0 0-.128-.448l-.128-.512h-1.344c-.0427-.128-.0853-.2347-.128-.32-.0427-.128-.0853-.2347-.128-.32h1.728c-.0427-.128-.1067-.2347-.192-.32-.0427-.128-.1067-.2347-.192-.32h.704Z" fill="#CA3D38"/><path d="m97.4405 12.184.256.512c.0853.128.1493.2773.192.448h-2.368c.0853.1707.1707.384.256.64l.256.64h-10.048l.384 1.28h5.184l.192.96h-.704c.0427.0853.064.192.064.32s.0213.2347.064.32h-1.728l.064.64h1.344v.512c.0427.128.064.2773.064.448h2.368c.0427.1707.064.32.064.448v.512h-6.016v.64c.0427.2133.064.4267.064.64h1.344v.64c.0427.2133.064.4267.064.64h2.304v.32h-.896v1.28h.256v.96h3.776v1.28h-3.584v.64h-.384v.32c0 .128-.0213.2347-.064.32h-1.152v1.28h.128c-.0427.128-.064.2987-.064.512v.128h2.368c0 .1707-.0213.3413-.064.512v.448h.96c0 .2133-.0213.4267-.064.64 0 .2133-.0213.4267-.064.64h-1.408c-.0427.0853-.064.192-.064.32s-.0213.2347-.064.32h-7.68c0 .1707-.0427.384-.128.64h6.72c-.0853.256-.128.4693-.128.64h.96l-.128.512c0 .128-.0427.2773-.128.448l-.192.64h-1.856l-.128.32h3.008c-.0853.1707-.128.2773-.128.32h-1.92l-.128.32h-.064l-.256.64a4.474 4.474 0 0 1-.32.64h-.96l-.704 1.28h1.088l-.384.64h.064c-.0853.0853-.1707.192-.256.32-.0853.128-.1707.2347-.256.32h-.448c-.128.128-.2133.2347-.256.32l-.384.512-.448.448h-.192a10.504 10.504 0 0 1-.704.64 10.504 10.504 0 0 1-.704.64h.576l-1.344.96h.064c-.3413.2133-.704.4267-1.088.64-.384.2133-.7893.4267-1.216.64h-.064c-.4267.2133-.96.4267-1.6.64h.064c-.8533.2987-1.7493.5547-2.688.768a31.2076 31.2076 0 0 1-2.88.512h1.344a32.394 32.394 0 0 1-2.112.192c-.7253.0427-1.472.064-2.24.064h-18.752c-.384 0-.6827-.0853-.896-.256h-1.344c-.4267-.256-.6827-.6827-.768-1.28h-.064v-.64h.128v-1.28h-.128v-.96h-.512v-1.28h.192v-.96h-.064v-.32h.512v-.64h-.064v-.64h-1.152v-1.28h1.024v-1.28h.064v-.32h1.92v-.32h-2.944v-.32h1.856v-1.6h-.896v-.64h-.064v-.64h1.664v-.64h-7.36v-1.28h-.256v-.96h.832v-.64h2.624v-1.28h1.664v-.64h.96v-.64h1.024v-1.28h1.472v-.96h1.408v-1.28h-4.288v-.32h-1.408v-1.28h-2.816v-1.28h7.296v-.96h-5.632v-.96h3.072v-.64h-.128v-.64h-.512v-.96h-2.752v-1.28h9.984v-1.28h2.368v-.96h-11.52v-1.28h7.552v-.32h-5.952v-.32h12.096v-1.28h-1.536v-.32h-15.232v-1.28h1.856v-.96h3.968v-.32h2.112v-.64h-1.152v-.32h-1.344v-.64h.128v-.768c.0427-.0853.064-.1493.064-.192h.256c.2133-.896.7893-1.344 1.728-1.344h18.432c3.2853 0 6.272.448 8.96 1.344h-.256c.768.256 1.5573.576 2.368.96h-.128a4.474 4.474 0 0 1 .64.32c.256.0853.4693.192.64.32h1.344l.576.32h1.088c.2133.0853.384.192.512.32.1707.128.3413.2347.512.32h-2.112l.256.128a.4189.4189 0 0 1 .192.192h-3.968l1.216.96h-1.92c.4693.384.896.8107 1.28 1.28h15.232l.128.128c.0427.0427.0853.1067.128.192h1.6c.1707.1707.3413.384.512.64.1707.2133.32.4267.448.64h-12.096l.128.128c.0427.0427.0853.1067.128.192h5.952l.192.32h-7.552c.2987.4267.5333.8533.704 1.28h11.52Zm-22.592 4.48a3.428 3.428 0 0 0-.96-.96h-5.184c-.9387-.6827-2.0907-1.024-3.456-1.024h-3.84v1.024h2.752v.96h.512v.64h.128v.64h-3.072v.96h5.632v.96h-7.296v1.28h2.816v1.28h1.408v.32h4.288v1.28h-1.408v.96h-1.472v1.28h-1.024v.64h-.96v.64h-1.664v1.28h-2.624v.64h-.832v.96h.256v1.28h7.36v.64h-1.664v.64h.064v.64h.896v.896h4.16c1.2373 0 2.2827-.2987 3.136-.896h-1.024l.384-.256c.128-.128.2347-.256.32-.384h-6.656l.256-.256c.0853-.128.1493-.256.192-.384h7.68c.0853-.0853.1493-.1707.192-.256l.128-.384h1.472a3.6542 3.6542 0 0 0 .192-.64l.128-.64h-.96c.0427-.1707.064-.32.064-.448 0-.1707.0213-.3413.064-.512h-2.368v-.384c.0427-.0853.064-.1707.064-.256h-.128v-.64c0-.256.0213-.4693.064-.64h1.152v-.64h.384l.064-.64h3.584v-1.28h-3.776v-.96h-.256v-1.28h.896v-.32h-2.368v-1.28h-1.408v-.64c0-.2133-.0213-.4267-.064-.64h6.016V19.8c0-.1707-.0213-.32-.064-.448v-.448h-2.368a6.144 6.144 0 0 0-.128-.448l-.128-.512h-1.344c-.0427-.128-.0853-.2347-.128-.32-.0427-.128-.0853-.2347-.128-.32h1.728c-.0427-.128-.1067-.2347-.192-.32-.0427-.128-.1067-.2347-.192-.32h.704Z" fill="#36487B"/><path d="m98.4405 12.184.256.512c.0853.128.1493.2773.192.448h-2.368c.0853.1707.1707.384.256.64l.256.64h-10.048l.384 1.28h5.184l.192.96h-.704c.0427.0853.064.192.064.32s.0213.2347.064.32h-1.728l.064.64h1.344v.512c.0427.128.064.2773.064.448h2.368c.0427.1707.064.32.064.448v.512h-6.016v.64c.0427.2133.064.4267.064.64h1.344v.64c.0427.2133.064.4267.064.64h2.304v.32h-.896v1.28h.256v.96h3.776v1.28h-3.584v.64h-.384v.32c0 .128-.0213.2347-.064.32h-1.152v1.28h.128c-.0427.128-.064.2987-.064.512v.128h2.368c0 .1707-.0213.3413-.064.512v.448h.96c0 .2133-.0213.4267-.064.64 0 .2133-.0213.4267-.064.64h-1.408c-.0427.0853-.064.192-.064.32s-.0213.2347-.064.32h-7.68c0 .1707-.0427.384-.128.64h6.72c-.0853.256-.128.4693-.128.64h.96l-.128.512c0 .128-.0427.2773-.128.448l-.192.64h-1.856l-.128.32h3.008c-.0853.1707-.128.2773-.128.32h-1.92l-.128.32h-.064l-.256.64a4.474 4.474 0 0 1-.32.64h-.96l-.704 1.28h1.088l-.384.64h.064c-.0853.0853-.1707.192-.256.32-.0853.128-.1707.2347-.256.32h-.448c-.128.128-.2133.2347-.256.32l-.384.512-.448.448h-.192a10.504 10.504 0 0 1-.704.64 10.504 10.504 0 0 1-.704.64h.576l-1.344.96h.064c-.3413.2133-.704.4267-1.088.64-.384.2133-.7893.4267-1.216.64h-.064c-.4267.2133-.96.4267-1.6.64h.064c-.8533.2987-1.7493.5547-2.688.768a31.2076 31.2076 0 0 1-2.88.512h1.344a32.394 32.394 0 0 1-2.112.192c-.7253.0427-1.472.064-2.24.064h-18.752c-.384 0-.6827-.0853-.896-.256h-1.344c-.4267-.256-.6827-.6827-.768-1.28h-.064v-.64h.128v-1.28h-.128v-.96h-.512v-1.28h.192v-.96h-.064v-.32h.512v-.64h-.064v-.64h-1.152v-1.28h1.024v-1.28h.064v-.32h1.92v-.32h-2.944v-.32h1.856v-1.6h-.896v-.64h-.064v-.64h1.664v-.64h-7.36v-1.28h-.256v-.96h.832v-.64h2.624v-1.28h1.664v-.64h.96v-.64h1.024v-1.28h1.472v-.96h1.408v-1.28h-4.288v-.32h-1.408v-1.28h-2.816v-1.28h7.296v-.96h-5.632v-.96h3.072v-.64h-.128v-.64h-.512v-.96h-2.752v-1.28h9.984v-1.28h2.368v-.96h-11.52v-1.28h7.552v-.32h-5.952v-.32h12.096v-1.28h-1.536v-.32h-15.232v-1.28h1.856v-.96h3.968v-.32h2.112v-.64h-1.152v-.32h-1.344v-.64h.128v-.768c.0427-.0853.064-.1493.064-.192h.256c.2133-.896.7893-1.344 1.728-1.344h18.432c3.2853 0 6.272.448 8.96 1.344h-.256c.768.256 1.5573.576 2.368.96h-.128a4.474 4.474 0 0 1 .64.32c.256.0853.4693.192.64.32h1.344l.576.32h1.088c.2133.0853.384.192.512.32.1707.128.3413.2347.512.32h-2.112l.256.128a.4189.4189 0 0 1 .192.192h-3.968l1.216.96h-1.92c.4693.384.896.8107 1.28 1.28h15.232l.128.128c.0427.0427.0853.1067.128.192h1.6c.1707.1707.3413.384.512.64.1707.2133.32.4267.448.64h-12.096l.128.128c.0427.0427.0853.1067.128.192h5.952l.192.32h-7.552c.2987.4267.5333.8533.704 1.28h11.52Zm-22.592 4.48a3.428 3.428 0 0 0-.96-.96h-5.184c-.9387-.6827-2.0907-1.024-3.456-1.024h-3.84v1.024h2.752v.96h.512v.64h.128v.64h-3.072v.96h5.632v.96h-7.296v1.28h2.816v1.28h1.408v.32h4.288v1.28h-1.408v.96h-1.472v1.28h-1.024v.64h-.96v.64h-1.664v1.28h-2.624v.64h-.832v.96h.256v1.28h7.36v.64h-1.664v.64h.064v.64h.896v.896h4.16c1.2373 0 2.2827-.2987 3.136-.896h-1.024l.384-.256c.128-.128.2347-.256.32-.384h-6.656l.256-.256c.0853-.128.1493-.256.192-.384h7.68c.0853-.0853.1493-.1707.192-.256l.128-.384h1.472a3.6542 3.6542 0 0 0 .192-.64l.128-.64h-.96c.0427-.1707.064-.32.064-.448 0-.1707.0213-.3413.064-.512h-2.368v-.384c.0427-.0853.064-.1707.064-.256h-.128v-.64c0-.256.0213-.4693.064-.64h1.152v-.64h.384l.064-.64h3.584v-1.28h-3.776v-.96h-.256v-1.28h.896v-.32h-2.368v-1.28h-1.408v-.64c0-.2133-.0213-.4267-.064-.64h6.016V19.8c0-.1707-.0213-.32-.064-.448v-.448h-2.368a6.144 6.144 0 0 0-.128-.448l-.128-.512h-1.344c-.0427-.128-.0853-.2347-.128-.32-.0427-.128-.0853-.2347-.128-.32h1.728c-.0427-.128-.1067-.2347-.192-.32-.0427-.128-.1067-.2347-.192-.32h.704Z" fill="#030712"/></g><defs><clipPath id="a"><path fill="#fff" d="M0 0h140v86H0z"/></clipPath></defs></svg>