<svg viewBox="0 0 60 50" fill="none" xmlns="http://www.w3.org/2000/svg">
  <g clip-path="url(#a)">
    <path
      d="m58.4405 12.184.256.512c.0853.128.1493.2773.192.448h-2.368c.0853.1707.1707.384.256.64l.256.64h-10.048l.384 1.28h5.184l.192.96h-.704c.0427.0853.064.192.064.32s.0213.2347.064.32h-1.728l.064.64h1.344v.512c.0427.128.064.2773.064.448h2.368c.0427.1707.064.32.064.448v.512h-6.016v.64c.0427.2133.064.4267.064.64h1.344v.64c.0427.2133.064.4267.064.64h2.304v.32h-.896v1.28h.256v.96h3.776v1.28h-3.584v.64h-.384v.32c0 .128-.0213.2347-.064.32h-1.152v1.28h.128c-.0427.128-.064.2987-.064.512v.128h2.368c0 .1707-.0213.3413-.064.512v.448h.96c0 .2133-.0213.4267-.064.64 0 .2133-.0213.4267-.064.64h-1.408c-.0427.0853-.064.192-.064.32s-.0213.2347-.064.32h-7.68c0 .1707-.0427.384-.128.64h6.72c-.0853.256-.128.4693-.128.64h.96l-.128.512c0 .128-.0427.2773-.128.448l-.192.64h-1.856l-.128.32h3.008c-.0853.1707-.128.2773-.128.32h-1.92l-.128.32h-.064l-.256.64a4.474 4.474 0 0 1-.32.64h-.96l-.704 1.28h1.088l-.384.64h.064c-.0853.0853-.1707.192-.256.32-.0853.128-.1707.2347-.256.32h-.448c-.128.128-.2133.2347-.256.32l-.384.512-.448.448h-.192a10.504 10.504 0 0 1-.704.64 10.504 10.504 0 0 1-.704.64h.576l-1.344.96h.064c-.3413.2133-.704.4267-1.088.64-.384.2133-.7893.4267-1.216.64h-.064c-.4267.2133-.96.4267-1.6.64h.064c-.8533.2987-1.7493.5547-2.688.768a31.2076 31.2076 0 0 1-2.88.512h1.344a32.394 32.394 0 0 1-2.112.192c-.7253.0427-1.472.064-2.24.064h-18.752c-.384 0-.6827-.0853-.896-.256h-1.344c-.4267-.256-.6827-.6827-.768-1.28h-.064v-.64h.128v-1.28h-.128v-.96h-.512v-1.28h.192v-.96h-.064v-.32h.512v-.64h-.064v-.64h-1.152v-1.28h1.024v-1.28h.064v-.32h1.92v-.32h-2.944v-.32h1.856v-1.6h-.896v-.64h-.064v-.64h1.664v-.64h-7.36v-1.28h-.256v-.96h.832v-.64h2.624v-1.28h1.664v-.64h.96v-.64h1.024v-1.28h1.472v-.96h1.408v-1.28h-4.288v-.32h-1.408v-1.28h-2.816v-1.28h7.296v-.96h-5.632v-.96h3.072v-.64h-.128v-.64h-.512v-.96h-2.752v-1.28h9.984v-1.28h2.368v-.96h-11.52v-1.28h7.552v-.32h-5.952v-.32h12.096v-1.28h-1.536v-.32H4.1685v-1.28h1.856v-.96h3.968v-.32h2.112v-.64h-1.152v-.32h-1.344v-.64h.128v-.768c.0427-.0853.064-.1493.064-.192h.256c.2133-.896.7893-1.344 1.728-1.344h18.432c3.2853 0 6.272.448 8.96 1.344h-.256c.768.256 1.5573.576 2.368.96h-.128a4.474 4.474 0 0 1 .64.32c.256.0853.4693.192.64.32h1.344l.576.32h1.088c.2133.0853.384.192.512.32.1707.128.3413.2347.512.32h-2.112l.256.128a.4189.4189 0 0 1 .192.192h-3.968l1.216.96h-1.92c.4693.384.896.8107 1.28 1.28h15.232l.128.128c.0427.0427.0853.1067.128.192h1.6c.1707.1707.3413.384.512.64.1707.2133.32.4267.448.64h-12.096l.128.128c.0427.0427.0853.1067.128.192h5.952l.192.32h-7.552c.2987.4267.5333.8533.704 1.28h11.52Zm-22.592 4.48a3.428 3.428 0 0 0-.96-.96h-5.184c-.9387-.6827-2.0907-1.024-3.456-1.024h-3.84v1.024h2.752v.96h.512v.64h.128v.64h-3.072v.96h5.632v.96h-7.296v1.28h2.816v1.28h1.408v.32h4.288v1.28h-1.408v.96h-1.472v1.28h-1.024v.64h-.96v.64h-1.664v1.28h-2.624v.64h-.832v.96h.256v1.28h7.36v.64h-1.664v.64h.064v.64h.896v.896h4.16c1.2373 0 2.2827-.2987 3.136-.896h-1.024l.384-.256c.128-.128.2347-.256.32-.384h-6.656l.256-.256c.0853-.128.1493-.256.192-.384h7.68c.0853-.0853.1493-.1707.192-.256l.128-.384h1.472a3.6542 3.6542 0 0 0 .192-.64l.128-.64h-.96c.0427-.1707.064-.32.064-.448 0-.1707.0213-.3413.064-.512h-2.368v-.384c.0427-.0853.064-.1707.064-.256h-.128v-.64c0-.256.0213-.4693.064-.64h1.152v-.64h.384l.064-.64h3.584v-1.28h-3.776v-.96h-.256v-1.28h.896v-.32h-2.368v-1.28h-1.408v-.64c0-.2133-.0213-.4267-.064-.64h6.016V19.8c0-.1707-.0213-.32-.064-.448v-.448h-2.368a6.144 6.144 0 0 0-.128-.448l-.128-.512h-1.344c-.0427-.128-.0853-.2347-.128-.32-.0427-.128-.0853-.2347-.128-.32h1.728c-.0427-.128-.1067-.2347-.192-.32-.0427-.128-.1067-.2347-.192-.32h.704Z"
      fill="#CA3D38"/>
    <path
      d="m56.4405 12.184.256.512c.0853.128.1493.2773.192.448h-2.368c.0853.1707.1707.384.256.64l.256.64h-10.048l.384 1.28h5.184l.192.96h-.704c.0427.0853.064.192.064.32s.0213.2347.064.32h-1.728l.064.64h1.344v.512c.0427.128.064.2773.064.448h2.368c.0427.1707.064.32.064.448v.512h-6.016v.64c.0427.2133.064.4267.064.64h1.344v.64c.0427.2133.064.4267.064.64h2.304v.32h-.896v1.28h.256v.96h3.776v1.28h-3.584v.64h-.384v.32c0 .128-.0213.2347-.064.32h-1.152v1.28h.128c-.0427.128-.064.2987-.064.512v.128h2.368c0 .1707-.0213.3413-.064.512v.448h.96c0 .2133-.0213.4267-.064.64 0 .2133-.0213.4267-.064.64h-1.408c-.0427.0853-.064.192-.064.32s-.0213.2347-.064.32h-7.68c0 .1707-.0427.384-.128.64h6.72c-.0853.256-.128.4693-.128.64h.96l-.128.512c0 .128-.0427.2773-.128.448l-.192.64h-1.856l-.128.32h3.008c-.0853.1707-.128.2773-.128.32h-1.92l-.128.32h-.064l-.256.64a4.474 4.474 0 0 1-.32.64h-.96l-.704 1.28h1.088l-.384.64h.064c-.0853.0853-.1707.192-.256.32-.0853.128-.1707.2347-.256.32h-.448c-.128.128-.2133.2347-.256.32l-.384.512-.448.448h-.192a10.504 10.504 0 0 1-.704.64 10.504 10.504 0 0 1-.704.64h.576l-1.344.96h.064c-.3413.2133-.704.4267-1.088.64-.384.2133-.7893.4267-1.216.64h-.064c-.4267.2133-.96.4267-1.6.64h.064c-.8533.2987-1.7493.5547-2.688.768a31.2076 31.2076 0 0 1-2.88.512h1.344a32.394 32.394 0 0 1-2.112.192c-.7253.0427-1.472.064-2.24.064h-18.752c-.384 0-.6827-.0853-.896-.256h-1.344c-.4267-.256-.6827-.6827-.768-1.28h-.064v-.64h.128v-1.28h-.128v-.96h-.512v-1.28h.192v-.96h-.064v-.32h.512v-.64h-.064v-.64h-1.152v-1.28h1.024v-1.28h.064v-.32h1.92v-.32h-2.944v-.32h1.856v-1.6h-.896v-.64h-.064v-.64h1.664v-.64h-7.36v-1.28h-.256v-.96h.832v-.64h2.624v-1.28h1.664v-.64h.96v-.64h1.024v-1.28h1.472v-.96h1.408v-1.28h-4.288v-.32h-1.408v-1.28h-2.816v-1.28h7.296v-.96h-5.632v-.96h3.072v-.64h-.128v-.64h-.512v-.96h-2.752v-1.28h9.984v-1.28h2.368v-.96h-11.52v-1.28h7.552v-.32h-5.952v-.32h12.096v-1.28h-1.536v-.32H2.1685v-1.28h1.856v-.96h3.968v-.32h2.112v-.64h-1.152v-.32h-1.344v-.64h.128v-.768c.0427-.0853.064-.1493.064-.192h.256c.2133-.896.7893-1.344 1.728-1.344h18.432c3.2853 0 6.272.448 8.96 1.344h-.256c.768.256 1.5573.576 2.368.96h-.128a4.474 4.474 0 0 1 .64.32c.256.0853.4693.192.64.32h1.344l.576.32h1.088c.2133.0853.384.192.512.32.1707.128.3413.2347.512.32h-2.112l.256.128a.4189.4189 0 0 1 .192.192h-3.968l1.216.96h-1.92c.4693.384.896.8107 1.28 1.28h15.232l.128.128c.0427.0427.0853.1067.128.192h1.6c.1707.1707.3413.384.512.64.1707.2133.32.4267.448.64h-12.096l.128.128c.0427.0427.0853.1067.128.192h5.952l.192.32h-7.552c.2987.4267.5333.8533.704 1.28h11.52Zm-22.592 4.48a3.428 3.428 0 0 0-.96-.96h-5.184c-.9387-.6827-2.0907-1.024-3.456-1.024h-3.84v1.024h2.752v.96h.512v.64h.128v.64h-3.072v.96h5.632v.96h-7.296v1.28h2.816v1.28h1.408v.32h4.288v1.28h-1.408v.96h-1.472v1.28h-1.024v.64h-.96v.64h-1.664v1.28h-2.624v.64h-.832v.96h.256v1.28h7.36v.64h-1.664v.64h.064v.64h.896v.896h4.16c1.2373 0 2.2827-.2987 3.136-.896h-1.024l.384-.256c.128-.128.2347-.256.32-.384h-6.656l.256-.256c.0853-.128.1493-.256.192-.384h7.68c.0853-.0853.1493-.1707.192-.256l.128-.384h1.472a3.6542 3.6542 0 0 0 .192-.64l.128-.64h-.96c.0427-.1707.064-.32.064-.448 0-.1707.0213-.3413.064-.512h-2.368v-.384c.0427-.0853.064-.1707.064-.256h-.128v-.64c0-.256.0213-.4693.064-.64h1.152v-.64h.384l.064-.64h3.584v-1.28h-3.776v-.96h-.256v-1.28h.896v-.32h-2.368v-1.28h-1.408v-.64c0-.2133-.0213-.4267-.064-.64h6.016V19.8c0-.1707-.0213-.32-.064-.448v-.448h-2.368a6.144 6.144 0 0 0-.128-.448l-.128-.512h-1.344c-.0427-.128-.0853-.2347-.128-.32-.0427-.128-.0853-.2347-.128-.32h1.728c-.0427-.128-.1067-.2347-.192-.32-.0427-.128-.1067-.2347-.192-.32h.704Z"
      fill="#36487B"/>
    <path
      id="favicon-main"
      d="m57.4405 12.184.256.512c.0853.128.1493.2773.192.448h-2.368c.0853.1707.1707.384.256.64l.256.64h-10.048l.384 1.28h5.184l.192.96h-.704c.0427.0853.064.192.064.32s.0213.2347.064.32h-1.728l.064.64h1.344v.512c.0427.128.064.2773.064.448h2.368c.0427.1707.064.32.064.448v.512h-6.016v.64c.0427.2133.064.4267.064.64h1.344v.64c.0427.2133.064.4267.064.64h2.304v.32h-.896v1.28h.256v.96h3.776v1.28h-3.584v.64h-.384v.32c0 .128-.0213.2347-.064.32h-1.152v1.28h.128c-.0427.128-.064.2987-.064.512v.128h2.368c0 .1707-.0213.3413-.064.512v.448h.96c0 .2133-.0213.4267-.064.64 0 .2133-.0213.4267-.064.64h-1.408c-.0427.0853-.064.192-.064.32s-.0213.2347-.064.32h-7.68c0 .1707-.0427.384-.128.64h6.72c-.0853.256-.128.4693-.128.64h.96l-.128.512c0 .128-.0427.2773-.128.448l-.192.64h-1.856l-.128.32h3.008c-.0853.1707-.128.2773-.128.32h-1.92l-.128.32h-.064l-.256.64a4.474 4.474 0 0 1-.32.64h-.96l-.704 1.28h1.088l-.384.64h.064c-.0853.0853-.1707.192-.256.32-.0853.128-.1707.2347-.256.32h-.448c-.128.128-.2133.2347-.256.32l-.384.512-.448.448h-.192a10.504 10.504 0 0 1-.704.64 10.504 10.504 0 0 1-.704.64h.576l-1.344.96h.064c-.3413.2133-.704.4267-1.088.64-.384.2133-.7893.4267-1.216.64h-.064c-.4267.2133-.96.4267-1.6.64h.064c-.8533.2987-1.7493.5547-2.688.768a31.2076 31.2076 0 0 1-2.88.512h1.344a32.394 32.394 0 0 1-2.112.192c-.7253.0427-1.472.064-2.24.064h-18.752c-.384 0-.6827-.0853-.896-.256h-1.344c-.4267-.256-.6827-.6827-.768-1.28h-.064v-.64h.128v-1.28h-.128v-.96h-.512v-1.28h.192v-.96h-.064v-.32h.512v-.64h-.064v-.64h-1.152v-1.28h1.024v-1.28h.064v-.32h1.92v-.32h-2.944v-.32h1.856v-1.6h-.896v-.64h-.064v-.64h1.664v-.64h-7.36v-1.28h-.256v-.96h.832v-.64h2.624v-1.28h1.664v-.64h.96v-.64h1.024v-1.28h1.472v-.96h1.408v-1.28h-4.288v-.32h-1.408v-1.28h-2.816v-1.28h7.296v-.96h-5.632v-.96h3.072v-.64h-.128v-.64h-.512v-.96h-2.752v-1.28h9.984v-1.28h2.368v-.96h-11.52v-1.28h7.552v-.32h-5.952v-.32h12.096v-1.28h-1.536v-.32H3.1685v-1.28h1.856v-.96h3.968v-.32h2.112v-.64h-1.152v-.32h-1.344v-.64h.128v-.768c.0427-.0853.064-.1493.064-.192h.256c.2133-.896.7893-1.344 1.728-1.344h18.432c3.2853 0 6.272.448 8.96 1.344h-.256c.768.256 1.5573.576 2.368.96h-.128a4.474 4.474 0 0 1 .64.32c.256.0853.4693.192.64.32h1.344l.576.32h1.088c.2133.0853.384.192.512.32.1707.128.3413.2347.512.32h-2.112l.256.128a.4189.4189 0 0 1 .192.192h-3.968l1.216.96h-1.92c.4693.384.896.8107 1.28 1.28h15.232l.128.128c.0427.0427.0853.1067.128.192h1.6c.1707.1707.3413.384.512.64.1707.2133.32.4267.448.64h-12.096l.128.128c.0427.0427.0853.1067.128.192h5.952l.192.32h-7.552c.2987.4267.5333.8533.704 1.28h11.52Zm-22.592 4.48a3.428 3.428 0 0 0-.96-.96h-5.184c-.9387-.6827-2.0907-1.024-3.456-1.024h-3.84v1.024h2.752v.96h.512v.64h.128v.64h-3.072v.96h5.632v.96h-7.296v1.28h2.816v1.28h1.408v.32h4.288v1.28h-1.408v.96h-1.472v1.28h-1.024v.64h-.96v.64h-1.664v1.28h-2.624v.64h-.832v.96h.256v1.28h7.36v.64h-1.664v.64h.064v.64h.896v.896h4.16c1.2373 0 2.2827-.2987 3.136-.896h-1.024l.384-.256c.128-.128.2347-.256.32-.384h-6.656l.256-.256c.0853-.128.1493-.256.192-.384h7.68c.0853-.0853.1493-.1707.192-.256l.128-.384h1.472a3.6542 3.6542 0 0 0 .192-.64l.128-.64h-.96c.0427-.1707.064-.32.064-.448 0-.1707.0213-.3413.064-.512h-2.368v-.384c.0427-.0853.064-.1707.064-.256h-.128v-.64c0-.256.0213-.4693.064-.64h1.152v-.64h.384l.064-.64h3.584v-1.28h-3.776v-.96h-.256v-1.28h.896v-.32h-2.368v-1.28h-1.408v-.64c0-.2133-.0213-.4267-.064-.64h6.016V19.8c0-.1707-.0213-.32-.064-.448v-.448h-2.368a6.144 6.144 0 0 0-.128-.448l-.128-.512h-1.344c-.0427-.128-.0853-.2347-.128-.32-.0427-.128-.0853-.2347-.128-.32h1.728c-.0427-.128-.1067-.2347-.192-.32-.0427-.128-.1067-.2347-.192-.32h.704Z"
    />
  </g>
  <defs>
    <clipPath id="a">
      <path fill="#fff" d="M0 0h60v50H0z"/>
    </clipPath>
  </defs>
  <style>#favicon-main { fill: #030712; } @media (prefers-color-scheme: dark) { #favicon-main { fill: #f9fafb; } }
  </style>
</svg>