<?xml version="1.0" standalone="no"?>
<!DOCTYPE svg PUBLIC "-//W3C//DTD SVG 20010904//EN"
 "http://www.w3.org/TR/2001/REC-SVG-20010904/DTD/svg10.dtd">
<svg version="1.0" xmlns="http://www.w3.org/2000/svg"
 width="700.000000pt" height="700.000000pt" viewBox="0 0 700.000000 700.000000"
 preserveAspectRatio="xMidYMid meet">
<metadata>
Created by potrace 1.14, written by Peter Selinger 2001-2017
</metadata>
<g transform="translate(0.000000,700.000000) scale(0.100000,-0.100000)"
fill="#000000" stroke="none">
<path d="M3418 5795 c-14 -13 -29 -33 -33 -44 -3 -11 -18 -22 -33 -25 -36 -7
-146 -24 -204 -31 -26 -2 -62 -7 -80 -10 -47 -6 -246 -34 -288 -40 -19 -3 -51
-7 -70 -10 -33 -5 -37 -2 -62 39 -49 83 -165 112 -236 59 -25 -18 -81 -91 -80
-103 0 -3 0 -26 -1 -51 -1 -43 -3 -47 -38 -61 -55 -23 -360 -156 -418 -182
-79 -36 -93 -39 -111 -22 -75 76 -210 -33 -162 -131 16 -33 40 10 -272 -486
l-194 -308 -30 8 c-178 43 -324 -116 -268 -291 16 -48 82 -127 113 -134 7 -2
16 -7 19 -11 3 -4 37 -7 75 -5 l70 2 60 -122 c33 -66 59 -127 58 -134 0 -7 1
-11 4 -8 7 6 115 -212 116 -231 0 -7 4 -13 8 -13 8 0 24 -40 21 -52 -1 -5 3
-8 9 -8 6 0 1 -13 -10 -29 -41 -58 -39 -138 4 -189 13 -16 23 -31 21 -33 -3
-2 8 -5 22 -6 15 0 28 -6 30 -11 4 -13 102 12 112 29 4 6 12 9 18 5 6 -3 14
-1 18 5 4 8 3 9 -4 5 -18 -11 -14 3 9 36 14 20 25 26 31 20 6 -6 16 -8 23 -5
8 2 64 0 127 -7 62 -6 136 -13 163 -16 28 -2 68 -6 90 -8 22 -3 46 -5 54 -5 8
-1 11 -7 7 -17 -4 -10 -2 -13 6 -8 8 5 9 2 5 -9 -3 -9 -3 -16 1 -14 4 1 7 -2
7 -6 0 -12 46 -36 68 -37 12 0 16 -5 11 -12 -5 -10 -4 -10 6 -1 11 10 16 9 27
-5 7 -9 13 -12 12 -7 -4 31 5 24 36 -28 19 -32 32 -63 29 -69 -4 -6 -3 -8 3
-5 9 5 26 -20 32 -45 1 -4 13 -20 27 -35 24 -25 29 -60 8 -56 -10 2 -13 -12
-13 -82 0 -65 1 -75 11 -75 5 0 6 -6 2 -12 -4 -7 -3 -10 1 -5 5 4 19 -2 31
-14 36 -33 101 -36 144 -6 l35 24 138 -71 c147 -75 141 -69 141 -148 0 -9 3
-15 8 -12 4 3 8 1 8 -5 0 -5 16 -26 36 -45 61 -59 143 -61 204 -4 19 18 39 31
43 30 5 -1 6 2 2 8 -4 6 -3 16 2 23 5 7 9 24 8 40 -1 23 7 33 18 25 2 -2 11 5
21 15 17 17 42 15 31 -3 -3 -5 -1 -11 4 -15 6 -3 8 5 6 17 -4 18 2 26 25 36
16 8 35 10 41 6 7 -4 9 -3 6 3 -8 13 40 36 56 27 7 -4 8 -3 4 1 -4 5 9 17 29
27 28 13 40 15 51 6 11 -9 12 -7 6 7 -5 15 -3 17 11 12 10 -4 15 -3 11 3 -3 6
2 11 12 12 10 0 23 2 30 2 6 1 15 5 20 10 4 5 3 6 -4 2 -7 -4 -13 -5 -13 -1 0
3 10 9 23 14 17 7 29 2 55 -20 18 -16 44 -29 57 -29 13 0 27 -5 31 -11 5 -8 9
-8 14 1 9 14 72 -158 63 -173 -3 -7 -2 -9 2 -5 5 5 23 -31 41 -78 32 -85 32
-87 13 -107 -21 -23 -32 -68 -27 -112 3 -34 61 -95 89 -95 10 0 20 -4 24 -10
3 -5 25 1 50 14 43 24 45 24 66 5 12 -10 43 -33 70 -50 27 -17 47 -35 44 -39
-3 -5 0 -12 6 -16 8 -4 9 -3 5 4 -4 7 -4 12 -1 12 9 0 119 -81 133 -98 6 -9
12 -12 12 -8 0 7 59 -31 70 -45 3 -3 15 -11 28 -18 12 -7 20 -16 17 -21 -3 -5
0 -12 6 -16 8 -4 9 -3 5 4 -4 7 -3 12 2 12 14 0 33 -26 25 -34 -4 -4 -1 -5 7
-2 9 4 38 -11 68 -34 29 -22 55 -40 58 -40 3 0 21 -12 39 -26 22 -17 32 -31
28 -42 -4 -14 -3 -14 5 -3 9 12 13 12 26 2 9 -7 13 -18 9 -24 -3 -6 -1 -7 5
-3 12 7 41 -5 64 -27 7 -7 24 -20 37 -30 20 -13 25 -25 26 -69 2 -85 50 -139
125 -140 142 -2 190 188 67 262 -18 11 -35 21 -39 22 -6 3 -21 180 -22 265 -1
24 -3 43 -6 43 -3 0 -5 27 -5 60 0 55 3 62 30 84 24 19 34 22 52 13 13 -6 23
-14 23 -19 0 -5 4 -6 10 -3 9 5 11 -2 10 -30 -1 -12 30 -62 44 -74 9 -7 14
-16 11 -20 -2 -4 21 -7 52 -5 50 1 60 5 85 33 30 34 35 60 25 128 -4 27 0 37
20 53 14 11 22 20 18 20 -5 0 0 9 10 20 10 11 22 17 28 13 6 -3 7 -1 3 6 -6 9
44 84 74 111 3 3 39 47 80 99 158 203 157 202 188 194 86 -22 165 44 164 137
-1 56 -53 129 -94 130 -25 0 -27 41 -4 70 13 15 15 20 4 12 -19 -15 -24 -9
-26 32 -2 21 2 27 13 22 8 -3 14 -2 13 2 -2 4 6 20 17 36 12 18 19 44 18 71
-1 38 3 47 37 79 39 36 58 46 44 24 -4 -7 -3 -8 5 -4 6 4 8 12 5 18 -4 6 -1
14 7 18 17 11 52 -7 43 -22 -5 -7 -2 -8 5 -3 7 4 32 8 55 9 24 1 56 10 72 21
16 11 32 19 35 18 3 -1 6 3 7 10 0 7 7 30 16 53 25 68 -3 145 -67 184 -18 11
-36 21 -40 23 -4 1 -10 58 -13 126 -2 69 -6 127 -9 129 -3 3 3 11 13 19 14 11
14 12 1 7 -17 -5 -17 -3 -24 261 l-2 99 31 26 c35 28 39 39 37 93 -2 61 -39
102 -101 110 -21 3 -30 16 -54 75 l-29 70 26 32 c15 17 27 38 27 46 0 9 3 13
8 10 14 -8 3 84 -14 120 -33 70 -116 106 -186 82 -37 -13 -14 -34 -229 219
-118 139 -144 173 -120 159 16 -11 6 100 -12 128 -36 54 -130 66 -167 21 -7
-8 -17 -15 -23 -15 -6 0 -133 48 -282 107 -148 58 -285 112 -304 118 -27 10
-36 19 -39 41 -9 72 -56 117 -121 116 -44 -1 -82 -23 -102 -60 -14 -24 -7 -24
-151 -7 -21 3 -55 7 -75 10 -21 2 -63 7 -93 10 -30 3 -66 8 -80 10 -14 2 -54
7 -90 11 -36 3 -67 7 -70 9 -3 2 -39 6 -81 9 -127 11 -149 17 -149 41 0 7 -14
25 -31 39 -41 35 -94 35 -131 1z m100 -47 c17 -17 15 -54 -4 -72 -21 -22 -39
-20 -63 5 -40 44 25 109 67 67z m-963 -64 c68 -32 84 -138 29 -195 -95 -99
-244 26 -179 151 9 17 20 30 26 30 6 0 16 6 23 13 19 18 64 19 101 1z m839
-30 c3 -9 4 -20 1 -24 -3 -5 0 -12 6 -16 8 -4 9 -3 5 4 -10 16 -5 15 35 -5 19
-10 45 -18 58 -18 18 0 32 -15 62 -64 43 -71 43 -70 30 -90 -8 -12 -29 -11
-143 7 -73 12 -142 24 -153 26 -11 2 -137 23 -280 46 -143 24 -264 46 -269 51
-5 4 0 8 10 8 10 0 93 11 184 25 91 13 192 28 225 31 33 4 63 9 66 11 3 2 34
6 70 10 35 3 66 8 68 10 9 8 19 3 25 -12z m321 0 c39 -3 72 -9 73 -15 2 -5 8
-7 12 -4 17 11 140 -7 133 -19 -4 -6 0 -6 9 1 8 7 18 10 21 7 4 -4 28 -8 54
-9 26 -2 48 -3 48 -4 0 -1 27 -4 60 -7 33 -3 71 -7 85 -9 14 -1 37 -3 53 -4
15 -1 27 -5 27 -9 0 -10 -89 -34 -101 -27 -5 4 -9 1 -9 -6 0 -7 -8 -9 -21 -6
-12 3 -18 3 -15 0 3 -4 -71 -28 -165 -55 l-171 -48 -34 30 c-33 29 -52 34
-101 30 -16 -1 -29 10 -48 40 -14 22 -23 46 -19 52 4 6 3 8 -3 5 -14 -9 -37
38 -29 58 4 12 14 15 38 10 18 -3 65 -8 103 -11z m799 -10 c9 -8 17 -20 17
-25 1 -5 2 -15 3 -21 3 -16 -14 -51 -28 -60 -19 -13 -59 -9 -78 9 -22 20 -23
70 -1 95 20 22 66 24 87 2z m-138 -128 c17 -18 19 -50 2 -40 -7 4 -8 3 -4 -4
6 -10 -28 -95 -112 -282 -11 -25 -32 -73 -48 -107 -23 -53 -31 -62 -48 -57
-48 11 -113 10 -150 -3 -22 -7 -43 -10 -47 -6 -34 39 -168 256 -163 265 5 7 3
8 -6 3 -10 -6 -12 -4 -7 9 4 10 7 20 7 22 0 3 3 3 8 1 4 -3 7 7 7 21 0 15 4
28 9 29 5 1 12 6 16 13 4 6 20 12 36 13 16 1 31 5 34 9 3 4 17 9 30 12 14 3
111 30 215 60 105 30 194 55 198 55 5 1 15 -5 23 -13z m208 -8 c-4 -7 -3 -8 5
-4 13 8 81 -14 81 -26 0 -4 3 -7 8 -7 28 5 44 -2 38 -17 -5 -14 -4 -15 8 -5
12 10 22 9 48 -2 83 -38 132 -57 144 -57 8 0 14 -5 14 -11 0 -5 4 -8 8 -5 5 3
21 -2 36 -10 16 -7 35 -14 43 -14 8 0 12 -4 9 -9 -3 -5 0 -9 7 -8 29 1 48 -4
44 -10 -3 -5 6 -9 20 -10 14 0 29 -7 34 -15 5 -7 9 -10 9 -6 0 4 13 2 29 -3
17 -6 28 -17 27 -26 -2 -10 -151 -77 -437 -197 l-434 -182 -29 41 c-16 22 -36
45 -44 51 -13 9 -13 15 1 45 8 19 21 49 28 67 8 17 17 32 21 32 5 0 7 3 7 8
-4 21 3 42 16 56 9 8 15 17 14 18 -1 2 3 20 10 41 8 22 17 34 23 31 6 -4 8 -2
4 4 -3 6 11 50 32 99 37 83 41 88 72 90 18 2 47 14 64 28 33 26 52 32 40 13z
m-1840 -5 c4 -4 19 -8 34 -9 15 -1 38 -2 51 -3 21 -1 22 -3 10 -18 -11 -15
-10 -14 9 1 12 11 22 15 22 10 0 -5 17 -10 38 -11 66 -3 181 -27 175 -36 -3
-5 4 -4 14 2 11 6 23 8 25 5 5 -5 16 -7 88 -18 19 -3 44 -7 55 -10 11 -2 42
-7 68 -10 39 -6 48 -11 43 -24 -5 -15 -4 -15 5 -2 10 14 21 14 99 1 86 -15 88
-15 100 -49 15 -43 57 -81 89 -82 21 0 22 -2 10 -17 -13 -17 -13 -17 7 0 36
30 72 20 64 -18 -1 -5 2 -7 6 -3 10 11 66 -81 58 -95 -4 -7 -4 -9 1 -5 4 4 14
3 22 -3 16 -14 18 -33 1 -23 -7 4 -8 3 -4 -5 4 -6 11 -9 16 -6 4 3 15 -6 24
-20 19 -29 20 -39 4 -29 -7 4 -8 3 -4 -5 4 -6 11 -9 16 -6 13 8 31 -30 24 -49
-3 -9 -9 -16 -14 -16 -4 0 -11 -9 -16 -19 -11 -23 30 -41 -469 214 -192 98
-389 198 -437 222 -49 24 -88 46 -88 49 0 3 5 2 12 -2 7 -4 8 -3 4 5 -4 6 -11
9 -16 6 -5 -3 -49 15 -97 39 -48 25 -81 45 -72 45 9 1 19 -2 23 -6z m-388 -38
c-3 -8 -2 -14 2 -12 5 1 23 -11 41 -26 33 -27 33 -28 21 -75 -6 -26 -13 -55
-15 -65 -9 -44 -18 -56 -45 -62 -16 -4 -43 -22 -59 -41 -30 -34 -30 -34 -83
-23 -29 5 -66 12 -83 15 -16 3 -73 14 -125 25 -52 11 -115 22 -140 24 -24 3
-49 10 -55 17 -7 8 -5 9 8 5 9 -4 17 -3 17 2 0 10 51 34 57 27 3 -3 12 2 20
10 9 8 22 13 30 10 8 -3 11 -1 8 4 -3 6 0 10 8 10 7 0 41 14 75 30 34 17 64
30 67 30 2 0 30 12 62 26 96 44 186 83 192 84 2 0 1 -7 -3 -15z m312 -13 c27
-5 102 -45 102 -53 0 -5 3 -8 8 -7 16 4 52 -14 46 -24 -4 -6 -2 -8 3 -5 14 9
65 -17 55 -28 -4 -5 -1 -5 5 -1 15 8 56 -12 48 -24 -3 -5 0 -12 6 -16 8 -4 9
-3 5 4 -13 21 10 13 133 -50 90 -45 120 -65 116 -76 -5 -13 -3 -13 11 -1 14
11 18 11 29 -5 7 -9 17 -17 22 -16 14 2 142 -63 138 -71 -3 -4 1 -6 8 -5 16 1
446 -217 442 -225 -8 -12 -80 7 -77 21 2 10 0 11 -10 2 -10 -8 -32 -7 -81 4
-37 7 -82 16 -100 19 -38 7 -867 169 -984 193 -77 15 -83 18 -89 44 -3 16 -17
42 -31 58 -14 17 -22 37 -19 47 3 10 7 30 10 46 3 15 8 37 12 50 4 12 8 29 8
37 1 10 11 15 29 15 15 -1 27 3 27 7 0 4 9 8 19 8 11 0 34 15 53 33 18 17 35
30 38 27 3 -3 11 -6 18 -8z m1042 -17 c15 9 50 -33 50 -58 0 -13 -9 -33 -21
-46 -47 -50 -127 0 -104 66 11 29 57 60 63 43 2 -6 8 -8 12 -5z m1646 -142
c-3 -8 -1 -11 4 -8 6 4 10 -5 10 -20 0 -15 -4 -24 -10 -20 -5 3 -7 0 -4 -9 7
-18 -28 -30 -61 -22 -44 11 -45 89 -2 105 28 10 70 -7 63 -26z m-3626 -33 c21
-21 27 -50 10 -50 -5 0 -10 -7 -10 -15 0 -18 -50 -21 -68 -3 -17 17 -15 48 5
70 21 23 38 23 63 -2z m3503 -88 c-2 -7 0 -11 5 -11 33 5 34 -1 27 -103 -3
-57 -9 -119 -12 -138 -5 -36 -7 -56 -18 -205 -3 -49 -8 -106 -10 -125 -2 -19
-7 -73 -11 -120 -4 -47 -12 -88 -18 -92 -8 -5 -8 -8 0 -8 6 0 10 -8 9 -17 -1
-10 -5 -54 -9 -98 -4 -44 -9 -93 -12 -110 -3 -16 -6 -51 -7 -77 0 -27 -4 -48
-7 -49 -28 -4 -45 -10 -75 -28 l-35 -20 -87 76 c-49 41 -101 87 -118 102 -16
15 -113 98 -215 186 -102 88 -187 162 -190 165 -3 3 -35 31 -72 63 l-67 58 15
36 c9 19 17 57 19 84 1 26 6 52 10 58 3 6 1 11 -4 11 -27 0 -6 17 47 39 31 12
66 27 77 32 11 5 27 10 35 11 8 2 17 6 20 10 10 13 113 47 124 41 6 -3 8 -2 3
2 -10 11 220 108 235 99 6 -4 8 -3 5 3 -4 6 6 16 23 22 17 5 30 8 30 5 0 -3 6
0 13 7 19 17 240 108 257 105 8 -1 14 -8 13 -14z m-3422 -4 c0 -10 2 -10 6 0
2 6 8 10 12 8 4 -3 68 -17 142 -32 74 -14 141 -28 149 -29 8 -2 25 -4 38 -4
13 -1 20 -5 17 -11 -3 -5 -1 -10 4 -10 6 0 11 5 11 10 0 7 6 7 19 1 10 -6 21
-8 24 -4 9 8 37 -16 37 -32 0 -7 -44 -42 -97 -78 -108 -72 -305 -206 -543
-368 -394 -269 -424 -288 -437 -277 -14 11 -7 32 8 23 5 -3 6 0 3 8 -3 8 2 20
11 27 8 7 15 17 15 23 0 5 11 25 25 43 14 18 25 37 25 43 0 5 6 14 14 18 8 4
15 13 17 18 4 25 12 34 22 28 6 -4 7 -1 2 7 -5 8 1 20 16 32 13 11 18 17 11
13 -7 -4 1 16 18 44 18 28 35 49 40 46 4 -3 7 3 6 13 0 9 4 16 11 15 7 -2 10
3 7 11 -3 8 4 24 15 35 12 12 20 22 19 24 -4 5 70 124 88 142 9 8 13 15 9 15
-3 0 2 11 11 25 9 14 21 22 27 18 6 -3 7 -1 3 6 -9 14 32 83 45 76 5 -4 6 1 3
9 -4 11 0 16 11 16 9 0 13 -4 10 -10 -6 -10 63 16 81 31 6 5 14 5 18 1 4 -4 7
-2 6 3 -4 20 0 35 10 35 6 0 10 -6 11 -12z m617 -23 c40 -46 17 -115 -38 -115
-31 0 -70 39 -70 69 0 29 31 63 51 58 11 -3 17 -1 13 4 -12 20 24 7 44 -16z
m2962 -17 c0 -5 -5 -6 -12 -2 -7 4 -8 3 -4 -5 4 -6 11 -9 16 -6 12 7 82 -74
74 -87 -4 -6 -3 -8 4 -4 13 8 54 -43 45 -57 -3 -5 -1 -7 5 -4 13 9 64 -51 56
-65 -4 -6 -2 -8 4 -5 5 4 28 -14 49 -40 68 -84 65 -77 49 -115 -17 -40 -12
-112 10 -145 16 -25 18 -37 5 -29 -5 3 -8 0 -7 -7 0 -6 -91 -135 -203 -285
-142 -191 -208 -271 -218 -268 -8 3 -19 6 -24 6 -6 0 -8 21 -4 53 11 94 14
131 16 179 1 26 5 46 8 44 3 -2 4 21 3 51 -2 31 0 53 5 50 4 -3 8 23 8 56 1
86 9 197 15 197 3 0 6 21 6 48 2 71 23 339 30 372 1 8 3 32 3 52 1 26 6 38 19
40 18 5 42 -9 42 -24z m-2813 -98 c8 0 12 -3 10 -7 -3 -5 17 -8 44 -9 26 -1
56 -7 66 -15 10 -8 14 -9 10 -2 -6 9 -1 10 20 3 15 -4 63 -14 105 -21 42 -7
75 -15 73 -18 -1 -3 20 -7 48 -9 28 -1 53 -5 56 -10 3 -4 26 -8 51 -10 25 -2
49 -7 54 -12 5 -5 16 -6 25 -2 14 5 14 4 2 -14 -14 -18 -14 -18 3 -3 16 15 66
15 66 0 0 -3 21 -7 47 -9 26 -1 50 -6 53 -10 3 -4 25 -9 50 -10 25 -2 47 -7
50 -12 3 -4 14 -7 25 -7 59 1 86 -4 79 -15 -4 -6 -3 -8 3 -5 10 6 159 -17 193
-29 15 -6 70 -14 100 -15 10 0 17 -11 18 -30 2 -23 -2 -29 -18 -30 -11 -1 -23
-2 -27 -3 -5 -1 -39 -8 -78 -15 -38 -7 -83 -17 -100 -21 -16 -5 -43 -11 -60
-14 -16 -2 -86 -16 -155 -30 -69 -14 -136 -27 -150 -30 -14 -2 -83 -16 -155
-31 -71 -15 -139 -29 -150 -31 -11 -2 -54 -11 -95 -19 -41 -8 -86 -17 -100
-20 -14 -3 -50 -10 -80 -16 -30 -5 -66 -12 -80 -15 -14 -2 -35 -6 -47 -9 -15
-4 -23 -1 -23 8 0 22 -58 84 -95 101 l-36 18 6 76 c4 42 9 97 11 122 3 25 6
71 7 102 2 54 4 58 42 83 22 15 44 34 49 42 6 11 17 13 38 9 17 -3 37 -6 45
-6z m-251 -44 c14 -11 19 -26 19 -60 0 -25 -2 -46 -5 -46 -3 0 -5 -26 -6 -58
-1 -31 -3 -93 -6 -136 -5 -73 -7 -80 -28 -83 -73 -11 -141 -89 -154 -176 -3
-22 -9 -27 -42 -33 -16 -3 -65 -11 -109 -19 -44 -8 -96 -17 -115 -20 -36 -6
-122 -20 -175 -30 -118 -20 -206 -35 -240 -41 -22 -3 -56 -9 -75 -13 -19 -4
-47 -7 -62 -7 -16 1 -28 -2 -28 -6 0 -14 -58 -9 -63 5 -6 16 46 50 58 39 5 -4
5 -2 2 4 -4 7 11 23 34 38 31 21 44 25 54 16 9 -8 15 -8 20 0 4 6 3 9 -2 8 -4
-2 -8 2 -9 7 -1 15 137 107 152 101 7 -3 11 0 9 7 -7 17 60 58 82 51 15 -5 16
-4 3 5 -8 6 -12 11 -7 11 4 0 9 0 12 0 2 0 17 12 32 26 15 13 33 22 40 19 8
-2 12 -1 9 4 -8 12 173 133 186 125 6 -4 8 -3 5 3 -9 14 40 46 55 37 7 -4 8
-3 4 4 -8 13 28 35 39 24 3 -4 5 -1 3 7 -2 7 3 16 11 19 9 3 11 0 6 -9 -5 -8
-4 -11 1 -6 5 5 9 14 9 20 0 7 10 12 22 11 15 0 19 4 15 15 -4 11 -1 13 13 7
11 -4 16 -4 12 0 -7 8 33 40 46 36 4 -1 7 2 7 7 0 4 18 20 40 35 22 14 40 24
40 22 0 -3 12 6 26 19 31 29 34 30 60 11z m1854 -36 c61 -31 110 -113 110
-185 0 -113 -100 -215 -210 -215 -34 0 -102 33 -130 61 -36 38 -59 103 -57
159 0 27 5 50 10 50 4 0 6 4 2 10 -8 13 40 86 70 106 68 45 136 49 205 14z
m1669 -180 c5 0 20 -12 35 -26 50 -50 28 -142 -38 -164 -41 -13 -75 -2 -104
35 -50 63 12 179 86 159 8 -2 17 -4 21 -4z m-1999 -112 c0 -4 0 -10 0 -13 -1
-3 5 -12 12 -19 49 -52 49 -48 -10 -117 -58 -67 -122 -144 -165 -194 -24 -28
-30 -30 -97 -30 -72 0 -73 0 -108 -41 l-36 -41 -236 49 c-129 27 -244 50 -255
53 -11 2 -74 15 -140 29 -66 14 -157 33 -202 42 -83 16 -103 29 -60 38 12 3
46 10 75 16 29 7 59 9 68 6 8 -3 12 -2 9 4 -3 6 2 10 12 11 20 1 29 2 103 18
63 14 63 14 55 -1 -4 -7 0 -5 7 4 8 9 32 19 54 21 21 2 46 7 54 10 8 3 53 13
100 22 46 8 86 18 89 20 2 3 11 -1 19 -8 9 -6 13 -7 9 -1 -4 6 38 19 116 34
67 13 127 25 132 26 24 5 163 34 195 40 19 4 49 8 67 8 17 1 29 4 27 8 -5 8
37 15 79 14 15 0 27 -4 27 -8z m482 -137 c15 -13 25 -29 21 -34 -3 -6 -1 -7 5
-3 6 4 24 -4 39 -17 15 -14 63 -55 106 -92 42 -37 77 -71 77 -76 0 -5 6 -8 13
-7 6 2 11 -4 9 -12 -2 -8 0 -12 3 -8 11 10 186 -142 178 -155 -3 -5 -1 -7 5
-4 5 4 37 -16 71 -45 50 -44 58 -55 48 -68 -10 -13 -10 -13 3 -3 13 10 24 5
63 -28 27 -23 47 -49 47 -60 0 -11 -3 -18 -7 -16 -5 3 -8 -8 -9 -24 -1 -16 -3
-31 -5 -33 -2 -2 -29 -7 -59 -11 -30 -3 -62 -8 -70 -10 -8 -2 -42 -6 -75 -10
-33 -3 -73 -8 -90 -10 -16 -3 -123 -16 -236 -30 -113 -14 -224 -28 -246 -31
-38 -5 -41 -3 -53 26 -15 37 -64 88 -96 100 -19 8 -22 15 -19 62 1 29 3 74 4
101 1 37 5 47 19 47 13 0 14 2 4 9 -10 6 -12 26 -7 82 3 41 7 83 10 94 2 11 4
39 4 63 1 32 4 41 14 36 9 -6 9 -5 0 8 -7 8 -11 17 -9 19 2 2 7 26 10 53 8 59
15 73 27 55 7 -12 9 -12 9 0 0 8 7 11 20 8 11 -3 18 -2 15 3 -5 7 42 25 58 22
4 -1 6 2 5 7 -2 5 6 16 17 24 22 17 26 15 77 -32z m-1952 0 c0 -12 2 -13 8 -3
12 18 58 -29 73 -75 34 -103 -64 -207 -164 -174 -41 14 -91 67 -83 87 3 8 1
14 -4 14 -12 0 -3 84 10 88 6 2 8 7 5 12 -9 15 48 59 88 68 50 10 67 6 67 -17z
m1593 -9 c-2 -6 3 -9 10 -6 21 8 67 -14 67 -31 0 -8 -6 -15 -12 -15 -9 0 -10
-3 -2 -8 8 -5 9 -27 4 -72 -10 -78 -18 -162 -26 -250 -8 -81 -11 -105 -14
-105 -2 0 -6 -62 -9 -117 -1 -21 -7 -29 -28 -34 -16 -4 -40 -13 -55 -20 -14
-8 -28 -10 -30 -5 -3 7 -41 51 -148 171 -22 25 -29 41 -25 55 13 38 21 115 13
115 -4 0 -10 11 -14 24 -7 31 38 86 67 81 11 -2 17 0 14 6 -4 5 -11 6 -17 3
-6 -4 -8 -1 -6 7 3 8 12 13 19 11 8 -2 11 0 7 3 -10 10 42 76 53 69 5 -3 8 -1
7 4 -5 16 96 131 112 129 8 -2 14 -8 13 -15z m1783 -32 c-2 -22 -9 -47 -17
-57 -9 -11 -10 -14 -1 -9 7 4 12 1 12 -8 0 -9 -3 -16 -7 -16 -5 0 -9 -26 -10
-57 -1 -31 -5 -63 -9 -72 -3 -9 -7 -34 -9 -56 -2 -22 -6 -58 -10 -80 -3 -22
-8 -51 -10 -65 -20 -143 -22 -150 -41 -150 -8 0 -32 -18 -55 -41 l-41 -41 -90
6 c-50 3 -93 8 -96 11 -3 3 -7 15 -9 27 -2 12 -12 37 -23 55 l-19 32 30 38
c17 21 36 41 42 45 7 4 8 8 3 8 -5 0 -3 7 4 15 7 8 17 12 23 8 6 -3 7 -1 3 5
-9 15 34 73 47 65 6 -3 7 -1 3 6 -8 13 42 78 56 73 5 -1 6 3 2 9 -3 6 -3 14 2
18 5 3 21 24 36 46 15 22 41 55 57 73 17 18 31 36 31 40 0 4 11 6 25 6 13 -1
22 2 19 7 -2 4 -12 5 -21 2 -11 -4 -14 -2 -11 8 3 8 11 13 17 11 7 -1 10 2 7
6 -3 5 6 22 19 38 14 16 25 33 25 37 0 5 4 6 9 2 6 -3 9 -23 7 -45z m128 -41
c25 -63 26 -72 13 -87 -33 -37 -37 -97 -11 -137 13 -20 12 -25 -6 -48 -11 -14
-20 -28 -20 -32 0 -4 -15 -30 -34 -58 -18 -29 -44 -71 -57 -94 -13 -24 -28
-43 -32 -43 -5 0 -6 4 -3 9 3 4 8 33 12 62 4 30 10 55 14 57 4 2 6 12 3 22 -3
11 -2 28 2 37 4 10 9 38 11 63 2 25 6 54 8 65 3 11 5 35 5 53 1 18 4 31 9 29
4 -3 8 20 9 49 0 30 7 62 15 71 7 9 8 14 2 10 -7 -4 -10 2 -6 18 9 47 35 29
66 -46z m-4829 -100 c-6 11 -5 12 6 5 8 -4 23 -10 34 -11 26 -5 63 -41 80 -78
18 -41 28 -88 17 -81 -5 3 -7 -5 -5 -18 10 -51 -58 -127 -124 -139 -42 -8 -91
9 -129 45 -66 62 -63 181 7 245 31 28 89 44 108 29 12 -9 13 -8 6 3z m1109
-27 c20 -38 76 -92 103 -98 13 -4 23 -9 23 -13 0 -9 71 -5 100 6 22 9 27 6 53
-33 16 -24 26 -48 22 -54 -4 -6 -2 -9 3 -8 12 4 173 -248 164 -256 -3 -3 -1
-6 5 -6 5 0 23 -22 40 -48 l30 -48 -22 -33 c-13 -17 -25 -34 -28 -37 -2 -3
-22 2 -43 10 -33 12 -358 119 -1252 412 -100 33 -113 39 -110 58 3 21 37 31
177 51 25 3 47 8 50 9 3 2 26 7 51 10 25 3 90 15 146 25 55 10 114 17 131 17
17 -1 29 2 26 7 -3 6 51 11 60 5 1 -1 12 4 25 11 17 9 22 9 22 -1 0 -10 2 -10
8 -1 4 7 28 14 52 16 25 3 52 7 60 10 8 4 29 8 45 10 17 2 33 5 37 6 4 0 14
-12 22 -27z m3865 -14 c12 -21 12 -27 -4 -51 -31 -48 -95 -27 -95 32 0 29 21
56 33 44 4 -3 7 -1 7 5 0 19 44 -3 59 -30z m-3479 24 c0 -5 14 -6 31 -4 24 4
30 2 24 -8 -5 -9 -4 -11 4 -6 14 9 191 -24 191 -35 0 -5 7 -6 15 -3 8 4 23 3
33 -1 9 -4 35 -10 57 -12 22 -2 42 -8 45 -11 3 -4 14 -7 25 -7 11 1 58 -8 105
-18 107 -24 103 -23 239 -50 111 -22 115 -24 123 -52 6 -24 3 -32 -15 -47 -63
-50 -320 -246 -375 -286 l-63 -45 -24 23 c-35 32 -108 49 -163 37 -24 -5 -47
-5 -52 -1 -20 23 -280 447 -280 459 0 7 8 19 17 26 14 12 16 12 8 0 -5 -10 -4
-12 4 -7 6 4 9 11 6 16 -9 15 7 40 26 40 10 0 19 -4 19 -8z m1084 -117 c25
-27 31 -76 15 -108 -6 -10 -25 -25 -42 -32 -55 -23 -107 18 -107 84 0 17 5 31
11 31 5 0 8 4 4 9 -8 14 36 41 68 41 17 0 37 -10 51 -25z m2323 -72 c-2 -16 1
-34 7 -42 9 -12 8 -13 -4 -6 -12 7 -13 6 -4 -6 6 -8 12 -57 13 -110 1 -52 4
-115 6 -140 2 -24 6 -105 9 -180 6 -127 5 -137 -12 -141 -14 -4 -32 11 -68 56
-27 33 -51 63 -54 66 -3 3 -19 23 -36 45 -28 36 -30 43 -19 69 13 30 4 101
-15 120 -11 11 7 49 20 41 6 -3 7 1 4 9 -3 8 4 24 15 35 12 12 21 24 22 29 2
15 104 182 112 182 4 0 6 -12 4 -27z m-4601 -88 c60 -20 116 -39 124 -42 8 -3
20 -7 25 -8 26 -7 361 -118 365 -122 2 -2 -2 -8 -10 -13 -8 -6 -10 -10 -4 -10
5 0 14 4 20 10 10 10 206 -48 212 -63 2 -4 8 -5 13 -1 5 3 9 0 9 -6 0 -6 4 -9
10 -5 13 8 141 -35 135 -45 -3 -4 3 -6 12 -4 10 2 97 -22 193 -54 168 -56 175
-60 178 -87 3 -22 0 -27 -13 -21 -10 3 -14 2 -9 -5 4 -6 -1 -10 -12 -8 -11 1
-26 -1 -34 -4 -8 -4 -150 -38 -315 -77 -165 -38 -376 -88 -468 -110 l-168 -40
-30 35 c-33 37 -57 48 -108 49 l-33 1 -138 280 c-99 201 -134 284 -127 293 7
9 5 11 -8 5 -16 -5 -15 -3 3 15 11 11 28 32 37 46 10 14 20 26 24 26 4 0 56
-16 117 -35z m2145 -36 c-9 -37 -52 -176 -60 -194 -5 -11 -38 -114 -75 -230
-103 -325 -236 -738 -243 -755 -3 -8 -7 -17 -7 -20 -1 -3 -12 -38 -26 -77 -17
-53 -28 -73 -41 -73 -12 0 -19 11 -24 40 -4 21 -3 45 1 51 5 8 3 9 -6 4 -10
-6 -12 0 -8 24 2 17 0 31 -4 31 -5 0 -8 10 -7 23 1 12 -1 29 -4 37 -3 8 -8 33
-11 55 -3 22 -10 65 -16 97 -6 31 -10 60 -9 65 1 4 0 15 -4 23 -12 31 -29 150
-23 165 3 8 1 15 -5 15 -6 0 -9 10 -8 23 2 12 0 28 -5 35 -4 7 -5 20 -2 29 5
13 9 13 23 2 10 -9 14 -9 10 -2 -5 7 11 30 38 57 25 25 45 53 45 61 0 10 5 13
12 9 6 -4 8 -3 5 3 -4 6 -3 38 1 72 6 39 5 58 -1 54 -6 -4 -8 3 -5 15 4 12 2
22 -3 22 -5 0 -9 7 -9 16 0 11 6 14 23 9 14 -4 18 -3 9 3 -10 7 -10 11 3 22
12 10 18 10 33 -1 15 -12 16 -12 4 2 -10 14 -8 19 15 34 26 18 39 27 66 50 53
46 128 96 136 90 6 -3 9 0 6 7 -5 13 52 55 68 50 4 -1 6 4 5 11 -2 6 5 11 14
11 10 -1 16 2 13 6 -7 11 22 33 35 25 6 -4 10 -3 9 2 -3 18 2 24 19 21 9 -2
15 -11 13 -19z m170 -11 c1 -7 1 -16 0 -20 0 -5 5 -7 12 -5 6 1 11 -5 9 -13
-2 -8 0 -12 4 -8 4 4 13 3 21 -3 16 -14 18 -33 1 -23 -7 4 -8 3 -4 -4 4 -6 14
-8 23 -5 13 5 15 2 9 -12 -4 -11 -4 -16 0 -12 10 10 45 -23 37 -36 -4 -6 -1
-7 6 -3 8 5 14 0 18 -13 3 -11 9 -18 14 -15 5 3 10 0 10 -5 1 -6 2 -17 3 -23
1 -7 -4 -26 -12 -41 -21 -44 -17 -131 7 -173 26 -43 26 -43 -2 -76 -12 -15
-35 -44 -52 -65 -202 -257 -540 -680 -549 -688 -6 -6 -16 -19 -23 -30 -6 -11
-16 -19 -23 -17 -6 1 -9 -1 -6 -6 3 -5 -8 -24 -24 -43 -29 -34 -39 -34 -20 0
5 10 11 29 14 42 14 66 93 289 99 282 5 -4 5 -1 2 8 -3 8 9 60 28 115 19 54
53 160 78 234 24 74 47 137 51 138 5 2 6 7 3 12 -3 4 5 34 16 66 24 69 24 69
34 111 4 18 11 30 15 28 5 -3 6 5 2 17 -4 16 -2 19 8 13 9 -5 11 -4 6 3 -7 11
13 81 53 192 16 45 17 50 20 71 0 6 14 8 31 5 16 -2 32 0 36 5 8 14 44 11 45
-3z m1520 -50 c0 -10 2 -10 5 -1 8 19 61 -5 85 -38 11 -16 18 -33 14 -38 -3
-5 -1 -12 5 -16 5 -3 10 -20 10 -36 0 -17 -4 -28 -10 -24 -6 3 -7 -1 -4 -10 8
-20 -20 -61 -54 -79 -34 -17 -93 -14 -125 7 -29 19 -57 75 -57 114 1 42 33 94
71 114 40 22 59 24 60 7z m534 -118 c24 -27 22 -70 -5 -92 -42 -34 -87 -15
-96 40 -4 26 -2 32 13 32 14 0 15 2 4 9 -11 7 -10 11 5 20 29 16 59 13 79 -9z
m-1710 -20 c-3 -4 3 -6 13 -3 41 10 102 -72 102 -139 0 -39 -29 -90 -65 -114
-57 -37 -159 -7 -185 56 -16 38 -17 113 -1 118 6 2 9 7 6 12 -2 4 4 18 15 30
17 20 22 21 37 9 16 -13 17 -12 4 3 -11 15 -11 18 0 22 48 15 81 18 74 6z
m1488 -42 c55 -1 59 -3 71 -32 14 -34 36 -55 75 -73 14 -6 20 -12 12 -12 -9
-1 -10 -5 -4 -13 6 -7 11 -31 12 -53 1 -47 7 -133 15 -230 3 -38 8 -93 10
-122 3 -37 1 -53 -9 -57 -18 -6 -44 -47 -50 -76 -6 -33 18 -84 52 -108 26 -19
30 -27 30 -72 1 -28 0 -50 -2 -48 -1 2 -37 71 -80 153 -43 83 -99 191 -125
240 -145 275 -189 363 -183 369 3 3 2 6 -4 6 -17 0 -25 31 -12 46 6 8 15 11
20 8 5 -3 6 1 3 9 -2 7 8 26 23 42 15 16 22 25 16 21 -8 -4 -13 -2 -13 5 0 8
13 9 43 5 23 -3 68 -6 100 -8z m-488 -15 c0 -7 -259 -197 -575 -422 -316 -225
-586 -418 -600 -429 -20 -16 -29 -17 -41 -8 -14 10 -13 20 10 91 14 44 29 82
33 83 5 2 6 8 3 12 -3 5 2 26 11 47 9 21 18 45 19 54 1 8 19 70 41 137 29 91
43 121 53 117 11 -4 11 -3 2 9 -23 28 13 43 48 21 9 -5 12 -4 8 2 -4 6 7 13
27 17 34 7 101 65 112 98 3 10 8 16 12 14 4 -2 7 11 8 30 0 19 3 37 7 40 3 4
33 7 66 8 32 0 57 4 54 9 -2 4 13 7 34 8 21 0 49 3 63 6 14 3 53 6 86 6 34 1
60 6 57 10 -3 5 8 8 23 7 16 -1 31 -1 34 0 3 1 19 3 35 5 96 12 139 18 215 29
107 15 155 15 155 -1z m-2098 -33 c39 -23 67 -64 59 -85 -4 -10 -2 -14 5 -9
17 10 4 -90 -16 -124 -22 -36 -63 -61 -111 -67 -76 -10 -154 68 -154 154 0 29
4 40 12 35 7 -4 8 -3 4 5 -13 20 5 51 46 82 49 35 107 39 155 9z m2113 -60
c-12 -16 -26 -30 -31 -30 -5 0 -8 -3 -7 -7 4 -13 -33 -63 -42 -58 -4 3 -7 -1
-6 -8 0 -6 -25 -48 -57 -92 -32 -44 -140 -193 -241 -331 l-182 -250 -29 12
c-43 19 -114 16 -160 -5 -46 -21 -102 -79 -111 -117 -7 -26 -8 -26 -68 -20
-33 3 -70 8 -81 10 -11 2 -45 7 -75 11 -77 9 -87 13 -93 35 -4 15 7 29 44 56
27 20 54 32 60 28 7 -4 9 -3 6 3 -3 5 7 20 23 31 32 24 45 28 34 10 -4 -7 -3
-8 5 -4 6 4 9 11 7 15 -7 11 52 53 64 46 6 -4 7 -11 4 -17 -5 -7 -2 -8 5 -3 9
5 10 10 2 18 -16 16 42 63 71 58 5 0 7 5 5 12 -1 6 6 11 15 11 10 -1 15 2 13
7 -7 11 30 30 40 21 5 -4 5 -2 2 4 -4 7 4 19 18 28 14 9 25 14 25 12 0 -3 11
5 24 17 13 12 47 38 75 57 29 19 58 40 64 45 43 35 79 55 90 49 6 -4 9 -4 5 1
-4 4 -3 14 3 22 9 10 15 11 26 2 11 -9 12 -9 8 3 -7 18 20 42 36 32 7 -4 10
-3 6 2 -6 11 172 140 190 138 7 -1 11 2 8 6 -8 12 23 33 36 24 7 -4 9 -3 5 4
-8 13 28 35 39 24 5 -4 5 -2 1 5 -4 7 2 17 15 23 11 7 44 29 72 51 29 21 53
39 55 39 2 0 -6 -13 -18 -30z m728 -13 c12 -13 19 -27 15 -30 -3 -4 1 -7 9 -7
9 0 18 -6 21 -13 2 -7 27 -39 54 -72 41 -49 49 -64 42 -82 -13 -35 -27 -123
-19 -118 4 3 10 -5 14 -18 4 -17 -6 -33 -50 -77 -45 -45 -58 -52 -72 -44 -9 6
-17 20 -18 30 -1 10 -4 60 -8 109 -4 50 -9 124 -12 165 -3 41 -7 99 -9 128 -2
28 0 52 4 52 4 0 17 -10 29 -23z m-635 -9 c2 -7 0 -29 -4 -48 -5 -19 -11 -62
-15 -95 -4 -33 -9 -62 -13 -65 -3 -3 -6 -21 -7 -40 -1 -29 -11 -95 -48 -320
-3 -14 -5 -27 -6 -30 -2 -5 -2 -4 -14 -107 -5 -40 -11 -73 -15 -73 -3 0 -6
-12 -6 -27 -1 -16 -4 -48 -7 -73 -4 -25 -10 -66 -14 -92 -4 -27 -9 -48 -13
-48 -3 0 -6 -19 -7 -43 -1 -44 -8 -96 -24 -182 -6 -27 -12 -65 -14 -84 -2 -26
-9 -36 -33 -46 l-31 -13 -157 152 c-137 131 -157 154 -151 174 4 12 10 20 14
18 4 -2 8 28 10 67 3 63 0 79 -26 130 l-29 58 94 129 c70 95 99 127 111 123
14 -4 14 -3 3 5 -12 9 -9 18 20 55 19 25 40 54 48 66 12 16 18 18 30 8 14 -11
14 -10 2 5 -11 15 -10 22 10 47 13 16 37 48 52 70 16 23 32 39 37 36 4 -3 7 3
6 13 0 9 5 16 12 14 8 -1 11 1 8 6 -7 12 42 78 55 74 6 -1 8 1 5 6 -5 8 3 22
58 101 29 41 51 52 59 29z m135 -18 c7 -12 10 -26 6 -32 -4 -6 -3 -9 2 -5 10
6 150 -258 148 -279 -1 -8 2 -12 6 -9 11 7 22 -24 13 -37 -4 -7 -1 -8 7 -3 10
6 12 4 7 -8 -3 -9 -2 -16 3 -14 11 3 91 -149 83 -157 -4 -3 -1 -6 6 -6 7 0 9
-4 6 -10 -3 -5 -1 -10 5 -10 7 0 9 -7 6 -17 -4 -10 -4 -14 0 -10 9 9 55 -66
57 -92 1 -11 4 -18 8 -15 7 4 33 -50 29 -62 -1 -4 4 -10 11 -14 6 -5 9 -15 6
-25 -4 -9 -10 -14 -15 -11 -4 2 -8 -3 -9 -12 -1 -9 -5 -38 -9 -63 -5 -34 -2
-52 10 -70 15 -24 13 -27 -100 -169 -64 -80 -128 -159 -142 -177 -15 -18 -54
-66 -87 -107 -33 -42 -66 -76 -73 -76 -10 0 -12 46 -12 221 1 121 0 222 -2
224 -6 6 -1 132 6 143 3 6 3 13 -2 16 -4 2 -9 177 -10 388 -2 211 -3 403 -4
428 -1 76 2 90 15 90 7 0 18 -9 25 -20z m-2628 -130 c-14 -11 -32 -17 -40 -14
-8 3 -11 2 -7 -2 10 -10 -31 -37 -43 -29 -6 4 -9 1 -8 -5 2 -6 -16 -22 -39
-34 -24 -13 -49 -28 -56 -35 -8 -6 -17 -8 -20 -4 -4 3 -7 1 -7 -5 0 -6 -25
-25 -56 -43 -56 -31 -57 -32 -86 -14 -16 9 -38 15 -49 12 -10 -3 -19 -1 -19 4
0 6 -10 1 -22 -11 -12 -11 -26 -20 -30 -20 -5 0 -13 -11 -20 -25 -9 -21 -16
-24 -52 -20 -23 2 -72 7 -111 10 -38 3 -83 7 -100 10 -16 2 -61 7 -99 10 -38
3 -71 7 -73 9 -6 6 149 36 158 31 5 -4 9 -1 9 6 0 7 10 9 25 7 13 -3 22 -2 20
3 -3 4 14 11 37 15 24 4 45 8 48 9 3 1 23 5 45 10 22 4 47 11 56 16 10 5 21 3
29 -4 8 -7 10 -8 7 -1 -6 10 51 26 168 50 6 1 28 7 50 12 22 6 54 14 70 17 17
3 73 16 125 29 118 30 121 30 90 6z m1280 0 c0 -5 -4 -10 -10 -10 -5 0 -10 5
-10 10 0 6 5 10 10 10 6 0 10 -4 10 -10z m-14 -24 c3 -8 -2 -28 -11 -45 -8
-17 -14 -31 -11 -31 2 0 -11 -46 -30 -102 -19 -56 -34 -108 -34 -116 0 -7 -5
-10 -12 -6 -7 4 -8 3 -4 -4 7 -12 -62 -242 -73 -240 -3 1 -22 -1 -42 -5 -59
-12 -109 -79 -109 -146 0 -30 24 -18 -320 -174 -36 -16 -68 -31 -72 -34 -20
-11 -4 29 25 65 17 22 52 65 76 96 31 39 49 55 60 51 12 -5 13 -3 4 6 -9 9 -4
22 24 55 20 24 41 40 46 37 6 -3 7 -1 3 6 -8 13 62 104 74 96 4 -3 7 3 6 13 0
9 5 16 12 14 6 -1 11 2 10 7 -5 15 73 111 85 104 6 -3 7 -1 3 5 -4 6 2 21 13
34 53 63 62 72 55 59 -5 -9 -3 -12 5 -7 6 4 9 11 7 15 -3 4 2 18 11 30 12 19
17 20 25 10 7 -11 8 -9 4 4 -8 24 128 193 153 190 9 -1 11 0 4 3 -7 3 -13 10
-13 15 0 14 20 11 26 -5z m2170 -15 c16 -1 42 -43 49 -77 5 -24 4 -26 -5 -14
-10 13 -11 12 -6 -4 23 -68 -88 -113 -139 -56 -9 10 -19 37 -22 59 -5 35 -2
44 24 70 23 22 38 29 59 27 16 -2 34 -4 40 -5z m-3359 -23 c24 -22 29 -47 15
-63 -5 -6 -23 -46 -40 -90 -17 -44 -61 -150 -96 -235 l-65 -155 -38 -3 -38 -2
-71 121 c-69 118 -71 123 -57 151 9 16 19 25 26 22 8 -5 8 -2 0 7 -22 23 -15
54 17 72 17 10 35 15 40 12 6 -4 9 -2 8 4 -2 9 251 176 271 180 3 1 15 -9 28
-21z m2452 -58 c0 -51 -4 -68 -12 -63 -8 4 -8 1 1 -9 15 -18 20 -87 9 -105 -5
-7 -4 -13 0 -13 10 0 8 -94 -3 -111 -4 -7 -3 -10 2 -6 5 3 10 -12 10 -34 1
-25 -3 -36 -10 -32 -8 5 -8 3 0 -8 13 -17 13 -167 0 -188 -6 -9 -5 -12 2 -8 7
5 11 -81 12 -280 1 -159 3 -306 4 -328 2 -33 -2 -44 -27 -66 -26 -24 -33 -26
-56 -16 -41 17 -51 28 -51 54 0 32 -16 63 -47 89 l-25 22 17 103 c10 57 19
113 22 124 5 21 8 55 11 106 1 16 5 28 10 26 4 -3 8 10 9 29 3 53 4 61 24 184
11 63 20 122 20 130 1 13 13 90 34 220 11 64 35 231 35 240 0 5 2 10 5 10 2 0
4 -32 4 -70z m-2309 -7 c2 -2 4 -21 5 -42 0 -22 3 -37 8 -34 4 2 8 -11 9 -29
3 -56 4 -63 10 -74 4 -6 9 -35 12 -65 2 -30 7 -61 11 -70 3 -9 7 -35 8 -58 1
-22 5 -41 8 -41 3 0 6 -6 6 -12 2 -39 13 -117 21 -143 5 -16 8 -40 7 -53 -1
-13 2 -25 7 -28 20 -13 5 -54 -34 -94 l-43 -43 -112 57 c-62 32 -113 61 -113
67 0 5 -3 8 -7 8 -25 -4 -33 4 -33 35 0 41 -12 77 -33 98 -13 13 -12 20 6 64
12 27 25 51 29 52 5 2 6 8 2 13 -3 5 2 21 10 36 8 16 25 54 37 85 12 31 26 55
30 53 4 -3 5 5 1 17 -4 16 -2 19 8 13 8 -5 11 -4 7 2 -8 13 43 144 54 137 4
-2 11 1 15 7 4 8 3 9 -4 5 -7 -4 -12 -1 -12 9 0 10 5 13 12 9 7 -4 8 -3 4 4
-12 20 4 32 32 26 15 -4 29 -9 32 -11z m-1289 -61 c7 -17 6 -21 -4 -16 -7 5
-5 0 3 -11 11 -13 12 -19 3 -22 -7 -2 -10 -10 -7 -18 6 -14 -36 -47 -64 -51
-40 -6 -106 66 -82 90 5 5 6 15 3 22 -3 8 2 17 11 20 9 3 14 10 11 15 -3 4 9
12 27 17 40 11 86 -10 99 -46z m687 -58 c52 -36 -1 -124 -53 -90 -30 20 -32
70 -3 90 12 9 25 16 28 16 3 0 16 -7 28 -16z m3523 -135 c14 -27 -3 -69 -28
-69 -27 0 -47 16 -38 30 5 9 4 11 -3 6 -15 -9 -15 9 -2 35 14 26 56 25 71 -2z
m-2001 -274 c12 -13 19 -28 16 -33 -3 -6 -1 -12 6 -14 7 -3 8 -9 3 -19 -5 -8
-10 -18 -10 -24 -4 -49 -57 -72 -107 -46 -18 9 -32 22 -30 29 1 7 -2 12 -8 12
-5 0 -10 16 -10 35 0 74 91 112 140 60z m624 3 c-4 -7 -3 -8 4 -4 20 12 71
-27 92 -69 24 -49 26 -111 5 -153 -17 -33 -68 -81 -88 -83 -7 0 -23 -3 -37 -5
-67 -12 -147 54 -163 135 -8 41 9 110 28 118 8 3 13 9 10 13 -5 8 37 42 65 53
29 11 92 8 84 -5z m-1869 -24 c27 -11 43 -55 33 -92 -16 -60 -88 -69 -119 -15
-37 64 18 133 86 107z m3307 -78 c15 -79 -74 -130 -121 -70 -12 15 -21 35 -21
45 0 26 21 69 31 63 5 -3 9 -1 9 5 0 18 44 17 71 -1 15 -10 29 -29 31 -42z
m-1909 -24 c4 -1 19 -2 33 -2 17 0 23 -4 18 -12 -5 -8 -1 -8 10 1 10 9 20 11
24 5 4 -5 23 -10 42 -10 88 -3 90 -4 95 -26 3 -13 7 -37 8 -55 1 -17 4 -29 6
-27 6 6 30 -29 31 -45 0 -7 -43 -66 -96 -132 -92 -114 -97 -118 -127 -112 -18
3 -36 10 -41 14 -6 5 -38 82 -72 171 l-61 163 23 28 c13 16 24 34 24 41 0 12
27 11 83 -2z m-828 -132 c8 -7 20 -30 26 -51 20 -66 -17 -125 -84 -136 -32 -5
-41 -1 -72 30 -27 27 -35 43 -35 71 0 20 5 36 11 36 5 0 7 4 4 10 -3 5 7 22
22 36 24 22 35 25 70 21 24 -2 50 -10 58 -17z m1409 -76 c9 -3 16 -16 16 -28
0 -17 2 -18 10 -6 9 13 14 7 11 -12 0 -5 4 -8 9 -8 15 0 66 -52 62 -63 -1 -5
1 -6 6 -3 11 6 64 -47 57 -57 -3 -4 -2 -5 2 -2 8 6 133 -115 133 -128 0 -4 -4
-6 -8 -3 -14 8 5 -103 22 -129 8 -12 28 -29 45 -36 33 -15 47 -55 28 -78 -9
-12 -9 -13 1 -7 9 5 12 -1 12 -21 -1 -15 1 -57 4 -93 3 -36 8 -101 11 -145 l6
-80 -201 403 c-111 222 -198 408 -194 415 4 7 4 9 -1 5 -8 -8 -34 28 -48 65
-7 19 -6 20 17 11z m-202 -34 c10 0 18 -6 18 -12 0 -8 3 -9 8 -3 4 6 30 11 57
12 l50 3 60 -122 c33 -68 59 -128 59 -135 -1 -7 1 -11 5 -9 11 7 83 -153 75
-166 -4 -6 -3 -8 3 -5 12 8 46 -61 37 -75 -4 -7 -2 -8 4 -4 13 8 45 -61 35
-77 -3 -5 -2 -7 4 -4 12 8 86 -141 77 -155 -4 -7 -2 -8 4 -4 13 8 45 -61 35
-77 -3 -5 -2 -7 4 -4 5 3 19 -14 31 -38 12 -25 19 -45 17 -45 -3 0 -128 86
-278 191 -149 106 -334 235 -409 288 l-138 96 3 48 c2 26 -1 47 -6 47 -4 0 -6
4 -3 9 4 5 1 11 -4 13 -6 2 5 25 26 51 20 25 40 45 44 42 3 -2 7 2 7 9 0 7 26
45 58 84 55 67 59 70 79 56 11 -7 28 -14 38 -14z m-319 -248 c10 -10 14 -22
10 -25 -3 -4 -1 -7 7 -7 10 0 10 -4 -1 -17 -10 -12 -10 -15 -1 -9 10 6 10 2 1
-18 -29 -64 -119 -41 -119 29 0 35 22 61 41 49 8 -4 9 -3 5 4 -12 20 39 14 57
-6z m981 -31 c10 -11 15 -25 11 -30 -3 -6 0 -11 7 -12 9 0 10 -2 1 -5 -7 -3
-10 -11 -7 -18 3 -8 -7 -23 -22 -35 -26 -21 -28 -21 -58 -3 -16 10 -33 29 -37
42 -7 28 7 64 22 55 5 -4 9 -3 8 2 -3 19 2 23 29 23 16 0 37 -9 46 -19z m282
-150 c23 -46 -23 -94 -67 -70 -24 12 -34 47 -19 64 7 8 9 15 4 15 -5 0 -2 5 6
10 25 17 64 7 76 -19z m-249 -528 c8 -10 12 -12 8 -5 -11 21 13 13 29 -10 56
-80 -48 -177 -111 -104 -27 32 -30 75 -5 103 30 35 59 40 79 16z"/>
<path d="M3490 5739 c0 -5 5 -7 10 -4 6 3 10 8 10 11 0 2 -4 4 -10 4 -5 0 -10
-5 -10 -11z"/>
<path d="M2554 5649 c-3 -6 -2 -15 3 -20 5 -5 9 -1 9 11 0 23 -2 24 -12 9z"/>
<path d="M2416 5618 c3 -5 10 -6 15 -3 13 9 11 12 -6 12 -8 0 -12 -4 -9 -9z"/>
<path d="M3335 5620 c3 -5 8 -10 11 -10 2 0 4 5 4 10 0 6 -5 10 -11 10 -5 0
-7 -4 -4 -10z"/>
<path d="M3070 5586 c0 -2 7 -7 16 -10 8 -3 12 -2 9 4 -6 10 -25 14 -25 6z"/>
<path d="M2895 5560 c3 -5 8 -10 11 -10 2 0 4 5 4 10 0 6 -5 10 -11 10 -5 0
-7 -4 -4 -10z"/>
<path d="M3556 5473 c-6 -14 -5 -15 5 -6 7 7 10 15 7 18 -3 3 -9 -2 -12 -12z"/>
<path d="M3616 5618 c3 -4 11 -5 19 -1 21 7 19 12 -4 10 -11 0 -18 -5 -15 -9z"/>
<path d="M3695 5620 c3 -5 8 -10 11 -10 2 0 4 5 4 10 0 6 -5 10 -11 10 -5 0
-7 -4 -4 -10z"/>
<path d="M3990 5585 c0 -7 30 -13 34 -7 3 4 -4 9 -15 9 -10 1 -19 0 -19 -2z"/>
<path d="M4115 5579 c-3 -4 2 -6 10 -5 21 3 28 13 10 13 -9 0 -18 -4 -20 -8z"/>
<path d="M3956 5558 c3 -5 10 -6 15 -3 13 9 11 12 -6 12 -8 0 -12 -4 -9 -9z"/>
<path d="M4490 5620 c0 -5 5 -10 11 -10 5 0 7 5 4 10 -3 6 -8 10 -11 10 -2 0
-4 -4 -4 -10z"/>
<path d="M4455 5601 c-3 -5 -2 -12 3 -15 5 -3 9 1 9 9 0 17 -3 19 -12 6z"/>
<path d="M4035 5409 c-4 -6 -5 -12 -2 -15 2 -3 7 2 10 11 7 17 1 20 -8 4z"/>
<path d="M3933 5385 c0 -8 4 -12 9 -9 5 3 6 10 3 15 -9 13 -12 11 -12 -6z"/>
<path d="M4556 5462 c-3 -5 1 -9 9 -9 8 0 12 4 9 9 -3 4 -7 8 -9 8 -2 0 -6 -4
-9 -8z"/>
<path d="M4750 5400 c0 -5 5 -10 10 -10 6 0 10 5 10 10 0 6 -4 10 -10 10 -5 0
-10 -4 -10 -10z"/>
<path d="M4874 5360 c0 -13 4 -16 10 -10 7 7 7 13 0 20 -6 6 -10 3 -10 -10z"/>
<path d="M5135 5259 c-3 -4 2 -6 10 -5 21 3 28 13 10 13 -9 0 -18 -4 -20 -8z"/>
<path d="M4370 5239 c0 -5 5 -7 10 -4 6 3 10 8 10 11 0 2 -4 4 -10 4 -5 0 -10
-5 -10 -11z"/>
<path d="M3047 5399 c7 -7 15 -10 18 -7 3 3 -2 9 -12 12 -14 6 -15 5 -6 -5z"/>
<path d="M3246 5382 c-3 -5 1 -9 9 -9 8 0 12 4 9 9 -3 4 -7 8 -9 8 -2 0 -6 -4
-9 -8z"/>
<path d="M3454 5336 c1 -8 5 -18 8 -22 4 -3 5 1 4 10 -1 8 -5 18 -8 22 -4 3
-5 -1 -4 -10z"/>
<path d="M3556 5282 c-3 -5 1 -9 9 -9 8 0 12 4 9 9 -3 4 -7 8 -9 8 -2 0 -6 -4
-9 -8z"/>
<path d="M3655 5201 c-3 -5 -2 -12 3 -15 5 -3 9 1 9 9 0 17 -3 19 -12 6z"/>
<path d="M2297 5435 c-4 -8 -3 -16 1 -19 4 -3 9 4 9 15 2 23 -3 25 -10 4z"/>
<path d="M2055 5301 c-3 -5 -2 -12 3 -15 5 -3 9 1 9 9 0 17 -3 19 -12 6z"/>
<path d="M2813 5335 c0 -8 4 -12 9 -9 5 3 6 10 3 15 -9 13 -12 11 -12 -6z"/>
<path d="M2896 5302 c-3 -5 1 -9 9 -9 8 0 12 4 9 9 -3 4 -7 8 -9 8 -2 0 -6 -4
-9 -8z"/>
<path d="M3150 5176 c0 -2 8 -10 18 -17 15 -13 16 -12 3 4 -13 16 -21 21 -21
13z"/>
<path d="M3295 5099 c-3 -4 2 -6 10 -5 21 3 28 13 10 13 -9 0 -18 -4 -20 -8z"/>
<path d="M3353 5055 c0 -8 4 -12 9 -9 5 3 6 10 3 15 -9 13 -12 11 -12 -6z"/>
<path d="M3389 5043 c-13 -16 -12 -17 4 -4 16 13 21 21 13 21 -2 0 -10 -8 -17
-17z"/>
<path d="M3456 5018 c3 -5 10 -6 15 -3 13 9 11 12 -6 12 -8 0 -12 -4 -9 -9z"/>
<path d="M3590 4939 c0 -5 5 -7 10 -4 6 3 10 8 10 11 0 2 -4 4 -10 4 -5 0 -10
-5 -10 -11z"/>
<path d="M3695 4911 c-3 -5 -2 -12 3 -15 5 -3 9 1 9 9 0 17 -3 19 -12 6z"/>
<path d="M5156 5127 c3 -10 9 -15 12 -12 3 3 0 11 -7 18 -10 9 -11 8 -5 -6z"/>
<path d="M5053 5103 c4 -3 1 -13 -6 -22 -11 -14 -10 -14 5 -2 16 12 16 31 1
31 -4 0 -3 -3 0 -7z"/>
<path d="M4805 4980 c-3 -6 1 -7 9 -4 18 7 21 14 7 14 -6 0 -13 -4 -16 -10z"/>
<path d="M4735 4971 c-3 -5 -2 -12 3 -15 5 -3 9 1 9 9 0 17 -3 19 -12 6z"/>
<path d="M4695 4940 c-3 -5 -1 -10 4 -10 6 0 11 5 11 10 0 6 -2 10 -4 10 -3 0
-8 -4 -11 -10z"/>
<path d="M4680 4900 c-9 -6 -10 -10 -3 -10 6 0 15 5 18 10 8 12 4 12 -15 0z"/>
<path d="M1975 5100 c-3 -5 -1 -10 4 -10 6 0 11 5 11 10 0 6 -2 10 -4 10 -3 0
-8 -4 -11 -10z"/>
<path d="M2055 5100 c-3 -5 -1 -10 4 -10 6 0 11 5 11 10 0 6 -2 10 -4 10 -3 0
-8 -4 -11 -10z"/>
<path d="M1719 5073 c-13 -16 -12 -17 4 -4 9 7 17 15 17 17 0 8 -8 3 -21 -13z"/>
<path d="M5416 5067 c3 -10 9 -15 12 -12 3 3 0 11 -7 18 -10 9 -11 8 -5 -6z"/>
<path d="M2655 4991 c-3 -5 -2 -12 3 -15 5 -3 9 1 9 9 0 17 -3 19 -12 6z"/>
<path d="M2855 4939 c-3 -4 2 -6 10 -5 21 3 28 13 10 13 -9 0 -18 -4 -20 -8z"/>
<path d="M2916 4913 c-6 -14 -5 -15 5 -6 7 7 10 15 7 18 -3 3 -9 -2 -12 -12z"/>
<path d="M2975 4901 c-3 -5 -2 -12 3 -15 5 -3 9 1 9 9 0 17 -3 19 -12 6z"/>
<path d="M3060 4880 c-9 -6 -10 -10 -3 -10 6 0 15 5 18 10 8 12 4 12 -15 0z"/>
<path d="M3566 4802 c-3 -5 1 -9 9 -9 8 0 12 4 9 9 -3 4 -7 8 -9 8 -2 0 -6 -4
-9 -8z"/>
<path d="M3750 4776 c0 -2 8 -10 18 -17 15 -13 16 -12 3 4 -13 16 -21 21 -21
13z"/>
<path d="M3793 4755 c0 -8 4 -12 9 -9 5 3 6 10 3 15 -9 13 -12 11 -12 -6z"/>
<path d="M2195 4900 c3 -5 8 -10 11 -10 2 0 4 5 4 10 0 6 -5 10 -11 10 -5 0
-7 -4 -4 -10z"/>
<path d="M1980 4740 c8 -5 20 -10 25 -10 6 0 3 5 -5 10 -8 5 -19 10 -25 10 -5
0 -3 -5 5 -10z"/>
<path d="M1873 4685 c0 -8 4 -12 9 -9 5 3 6 10 3 15 -9 13 -12 11 -12 -6z"/>
<path d="M1596 4498 c3 -4 11 -5 19 -1 21 7 19 12 -4 10 -11 0 -18 -5 -15 -9z"/>
<path d="M1435 4391 c-3 -5 -2 -12 3 -15 5 -3 9 1 9 9 0 17 -3 19 -12 6z"/>
<path d="M4216 4902 c-3 -5 1 -9 9 -9 8 0 12 4 9 9 -3 4 -7 8 -9 8 -2 0 -6 -4
-9 -8z"/>
<path d="M3933 4855 c0 -8 4 -12 9 -9 5 3 6 10 3 15 -9 13 -12 11 -12 -6z"/>
<path d="M5755 4731 c-3 -5 -2 -12 3 -15 5 -3 9 1 9 9 0 17 -3 19 -12 6z"/>
<path d="M5835 4720 c3 -5 8 -10 11 -10 2 0 4 5 4 10 0 6 -5 10 -11 10 -5 0
-7 -4 -4 -10z"/>
<path d="M3695 4621 c-3 -5 -2 -12 3 -15 5 -3 9 1 9 9 0 17 -3 19 -12 6z"/>
<path d="M3770 4625 c0 -7 30 -13 34 -7 3 4 -4 9 -15 9 -10 1 -19 0 -19 -2z"/>
<path d="M3655 4609 c-4 -6 -5 -12 -2 -15 2 -3 7 2 10 11 7 17 1 20 -8 4z"/>
<path d="M3560 4600 c-9 -6 -10 -10 -3 -10 6 0 15 5 18 10 8 12 4 12 -15 0z"/>
<path d="M3493 4569 c-2 -23 3 -25 10 -4 4 8 3 16 -1 19 -4 3 -9 -4 -9 -15z"/>
<path d="M3540 4560 c-9 -6 -10 -10 -3 -10 6 0 15 5 18 10 8 12 4 12 -15 0z"/>
<path d="M3335 4551 c-3 -5 -2 -12 3 -15 5 -3 9 1 9 9 0 17 -3 19 -12 6z"/>
<path d="M3366 4542 c-3 -5 1 -9 9 -9 8 0 12 4 9 9 -3 4 -7 8 -9 8 -2 0 -6 -4
-9 -8z"/>
<path d="M3015 4461 c-3 -5 -2 -12 3 -15 5 -3 9 1 9 9 0 17 -3 19 -12 6z"/>
<path d="M2777 4435 c-4 -8 -3 -16 1 -19 4 -3 9 4 9 15 2 23 -3 25 -10 4z"/>
<path d="M4130 4459 c0 -5 5 -7 10 -4 6 3 10 8 10 11 0 2 -4 4 -10 4 -5 0 -10
-5 -10 -11z"/>
<path d="M4454 4376 c1 -8 5 -18 8 -22 4 -3 5 1 4 10 -1 8 -5 18 -8 22 -4 3
-5 -1 -4 -10z"/>
<path d="M4495 4340 c-3 -5 -1 -10 4 -10 6 0 11 5 11 10 0 6 -2 10 -4 10 -3 0
-8 -4 -11 -10z"/>
<path d="M4530 4306 c0 -2 7 -7 16 -10 8 -3 12 -2 9 4 -6 10 -25 14 -25 6z"/>
<path d="M4733 4145 c0 -8 4 -12 9 -9 5 3 6 10 3 15 -9 13 -12 11 -12 -6z"/>
<path d="M4946 3962 c-3 -5 1 -9 9 -9 8 0 12 4 9 9 -3 4 -7 8 -9 8 -2 0 -6 -4
-9 -8z"/>
<path d="M3830 4361 c0 -6 4 -13 10 -16 6 -3 7 1 4 9 -7 18 -14 21 -14 7z"/>
<path d="M1155 4229 c-4 -6 -5 -12 -2 -15 2 -3 7 2 10 11 7 17 1 20 -8 4z"/>
<path d="M1916 4262 c-3 -5 1 -9 9 -9 8 0 12 4 9 9 -3 4 -7 8 -9 8 -2 0 -6 -4
-9 -8z"/>
<path d="M2170 4260 c0 -5 5 -10 11 -10 5 0 7 5 4 10 -3 6 -8 10 -11 10 -2 0
-4 -4 -4 -10z"/>
<path d="M1610 4219 c0 -5 5 -7 10 -4 6 3 10 8 10 11 0 2 -4 4 -10 4 -5 0 -10
-5 -10 -11z"/>
<path d="M1715 4220 c3 -5 8 -10 11 -10 2 0 4 5 4 10 0 6 -5 10 -11 10 -5 0
-7 -4 -4 -10z"/>
<path d="M1550 4206 c0 -2 7 -7 16 -10 8 -3 12 -2 9 4 -6 10 -25 14 -25 6z"/>
<path d="M2233 4195 c0 -8 4 -12 9 -9 5 3 6 10 3 15 -9 13 -12 11 -12 -6z"/>
<path d="M1466 4182 c-3 -5 1 -9 9 -9 8 0 12 4 9 9 -3 4 -7 8 -9 8 -2 0 -6 -4
-9 -8z"/>
<path d="M1330 4159 c0 -5 5 -7 10 -4 6 3 10 8 10 11 0 2 -4 4 -10 4 -5 0 -10
-5 -10 -11z"/>
<path d="M2316 4153 c-6 -14 -5 -15 5 -6 7 7 10 15 7 18 -3 3 -9 -2 -12 -12z"/>
<path d="M2650 4286 c0 -2 7 -7 16 -10 8 -3 12 -2 9 4 -6 10 -25 14 -25 6z"/>
<path d="M2595 4261 c-3 -5 -2 -12 3 -15 5 -3 9 1 9 9 0 17 -3 19 -12 6z"/>
<path d="M2755 4259 c-3 -4 2 -6 10 -5 21 3 28 13 10 13 -9 0 -18 -4 -20 -8z"/>
<path d="M2810 4226 c0 -2 7 -7 16 -10 8 -3 12 -2 9 4 -6 10 -25 14 -25 6z"/>
<path d="M3010 4200 c0 -5 5 -10 11 -10 5 0 7 5 4 10 -3 6 -8 10 -11 10 -2 0
-4 -4 -4 -10z"/>
<path d="M3053 4175 c0 -8 4 -12 9 -9 5 3 6 10 3 15 -9 13 -12 11 -12 -6z"/>
<path d="M3193 4165 c0 -8 4 -15 9 -15 4 0 8 4 8 9 0 6 -4 12 -8 15 -5 3 -9
-1 -9 -9z"/>
<path d="M3336 4142 c-3 -4 4 -9 15 -9 23 -2 25 3 4 10 -8 4 -16 3 -19 -1z"/>
<path d="M3256 4122 c-3 -5 1 -9 9 -9 8 0 12 4 9 9 -3 4 -7 8 -9 8 -2 0 -6 -4
-9 -8z"/>
<path d="M3586 4182 c-3 -5 1 -9 9 -9 8 0 12 4 9 9 -3 4 -7 8 -9 8 -2 0 -6 -4
-9 -8z"/>
<path d="M5919 4073 c-13 -16 -12 -17 4 -4 16 13 21 21 13 21 -2 0 -10 -8 -17
-17z"/>
<path d="M1210 4019 c0 -5 5 -7 10 -4 6 3 10 8 10 11 0 2 -4 4 -10 4 -5 0 -10
-5 -10 -11z"/>
<path d="M1276 4013 c-6 -14 -5 -15 5 -6 7 7 10 15 7 18 -3 3 -9 -2 -12 -12z"/>
<path d="M1410 4000 c0 -5 5 -10 11 -10 5 0 7 5 4 10 -3 6 -8 10 -11 10 -2 0
-4 -4 -4 -10z"/>
<path d="M1550 3945 c0 -7 30 -13 34 -7 3 4 -4 9 -15 9 -10 1 -19 0 -19 -2z"/>
<path d="M1730 3899 c0 -5 5 -7 10 -4 6 3 10 8 10 11 0 2 -4 4 -10 4 -5 0 -10
-5 -10 -11z"/>
<path d="M1670 3886 c0 -2 7 -7 16 -10 8 -3 12 -2 9 4 -6 10 -25 14 -25 6z"/>
<path d="M1895 3820 c-3 -5 -1 -10 4 -10 6 0 11 5 11 10 0 6 -2 10 -4 10 -3 0
-8 -4 -11 -10z"/>
<path d="M2110 3756 c0 -2 8 -10 18 -17 15 -13 16 -12 3 4 -13 16 -21 21 -21
13z"/>
<path d="M2365 3660 c-3 -6 1 -7 9 -4 18 7 21 14 7 14 -6 0 -13 -4 -16 -10z"/>
<path d="M2453 3663 c4 -3 1 -13 -6 -22 -11 -14 -10 -14 5 -2 16 12 16 31 1
31 -4 0 -3 -3 0 -7z"/>
<path d="M2579 3628 c-5 -18 -6 -38 -1 -34 7 8 12 36 6 36 -2 0 -4 -1 -5 -2z"/>
<path d="M3455 3980 c3 -5 8 -10 11 -10 2 0 4 5 4 10 0 6 -5 10 -11 10 -5 0
-7 -4 -4 -10z"/>
<path d="M3290 3860 c0 -5 5 -10 11 -10 5 0 7 5 4 10 -3 6 -8 10 -11 10 -2 0
-4 -4 -4 -10z"/>
<path d="M3136 3742 c-3 -5 1 -9 9 -9 8 0 12 4 9 9 -3 4 -7 8 -9 8 -2 0 -6 -4
-9 -8z"/>
<path d="M5233 3925 c0 -8 4 -12 9 -9 5 3 6 10 3 15 -9 13 -12 11 -12 -6z"/>
<path d="M5145 3900 c-3 -6 1 -7 9 -4 18 7 21 14 7 14 -6 0 -13 -4 -16 -10z"/>
<path d="M5690 3820 c0 -5 5 -10 11 -10 5 0 7 5 4 10 -3 6 -8 10 -11 10 -2 0
-4 -4 -4 -10z"/>
<path d="M4053 3771 c0 -11 5 -18 9 -15 4 3 5 11 1 19 -7 21 -12 19 -10 -4z"/>
<path d="M5350 3700 c0 -5 5 -10 11 -10 5 0 7 5 4 10 -3 6 -8 10 -11 10 -2 0
-4 -4 -4 -10z"/>
<path d="M5670 2976 c0 -2 8 -10 18 -17 15 -13 16 -12 3 4 -13 16 -21 21 -21
13z"/>
<path d="M4895 3740 c3 -5 8 -10 11 -10 2 0 4 5 4 10 0 6 -5 10 -11 10 -5 0
-7 -4 -4 -10z"/>
<path d="M4935 3741 c-3 -5 -2 -12 3 -15 5 -3 9 1 9 9 0 17 -3 19 -12 6z"/>
<path d="M4690 3699 c0 -5 5 -7 10 -4 6 3 10 8 10 11 0 2 -4 4 -10 4 -5 0 -10
-5 -10 -11z"/>
<path d="M4360 3660 c-12 -7 -10 -9 7 -7 12 0 19 5 17 9 -6 10 -6 10 -24 -2z"/>
<path d="M4455 3660 c-3 -5 -1 -10 4 -10 6 0 11 5 11 10 0 6 -2 10 -4 10 -3 0
-8 -4 -11 -10z"/>
<path d="M2850 3699 c0 -5 5 -7 10 -4 6 3 10 8 10 11 0 2 -4 4 -10 4 -5 0 -10
-5 -10 -11z"/>
<path d="M4433 3215 c0 -8 4 -12 9 -9 5 3 6 10 3 15 -9 13 -12 11 -12 -6z"/>
<path d="M4395 3201 c-3 -5 -2 -12 3 -15 5 -3 9 1 9 9 0 17 -3 19 -12 6z"/>
<path d="M5735 3620 c3 -5 8 -10 11 -10 2 0 4 5 4 10 0 6 -5 10 -11 10 -5 0
-7 -4 -4 -10z"/>
<path d="M5080 3600 c-9 -6 -10 -10 -3 -10 6 0 15 5 18 10 8 12 4 12 -15 0z"/>
<path d="M4873 3327 c0 -8 6 -14 14 -14 9 0 10 4 2 14 -6 7 -12 13 -14 13 -1
0 -2 -6 -2 -13z"/>
<path d="M4795 3201 c-3 -5 -2 -12 3 -15 5 -3 9 1 9 9 0 17 -3 19 -12 6z"/>
<path d="M4759 3153 c-13 -16 -12 -17 4 -4 16 13 21 21 13 21 -2 0 -10 -8 -17
-17z"/>
<path d="M4575 2880 c-3 -5 -1 -10 4 -10 6 0 11 5 11 10 0 6 -2 10 -4 10 -3 0
-8 -4 -11 -10z"/>
<path d="M2375 3420 c-3 -5 -1 -10 4 -10 6 0 11 5 11 10 0 6 -2 10 -4 10 -3 0
-8 -4 -11 -10z"/>
<path d="M2406 3418 c3 -5 10 -6 15 -3 13 9 11 12 -6 12 -8 0 -12 -4 -9 -9z"/>
<path d="M2255 3391 c-3 -5 -2 -12 3 -15 5 -3 9 1 9 9 0 17 -3 19 -12 6z"/>
<path d="M2099 3368 c-5 -18 -6 -38 -1 -34 7 8 12 36 6 36 -2 0 -4 -1 -5 -2z"/>
<path d="M2056 3342 c-3 -5 1 -9 9 -9 8 0 12 4 9 9 -3 4 -7 8 -9 8 -2 0 -6 -4
-9 -8z"/>
<path d="M1964 3322 c4 -3 14 -7 22 -8 9 -1 13 0 10 4 -4 3 -14 7 -22 8 -9 1
-13 0 -10 -4z"/>
<path d="M2027 3319 c7 -7 15 -10 18 -7 3 3 -2 9 -12 12 -14 6 -15 5 -6 -5z"/>
<path d="M1874 3302 c4 -3 14 -7 22 -8 9 -1 13 0 10 4 -4 3 -14 7 -22 8 -9 1
-13 0 -10 -4z"/>
<path d="M3665 3160 c-3 -6 1 -7 9 -4 18 7 21 14 7 14 -6 0 -13 -4 -16 -10z"/>
<path d="M6050 3419 c0 -5 5 -7 10 -4 6 3 10 8 10 11 0 2 -4 4 -10 4 -5 0 -10
-5 -10 -11z"/>
<path d="M2676 3382 c-3 -5 1 -9 9 -9 8 0 12 4 9 9 -3 4 -7 8 -9 8 -2 0 -6 -4
-9 -8z"/>
<path d="M2476 3302 c-3 -5 1 -9 9 -9 8 0 12 4 9 9 -3 4 -7 8 -9 8 -2 0 -6 -4
-9 -8z"/>
<path d="M2455 3261 c-3 -5 -2 -12 3 -15 5 -3 9 1 9 9 0 17 -3 19 -12 6z"/>
<path d="M1455 3300 c3 -5 8 -10 11 -10 2 0 4 5 4 10 0 6 -5 10 -11 10 -5 0
-7 -4 -4 -10z"/>
<path d="M3660 2820 c-12 -7 -10 -9 7 -7 12 0 19 5 17 9 -6 10 -6 10 -24 -2z"/>
<path d="M4335 2820 c3 -5 8 -10 11 -10 2 0 4 5 4 10 0 6 -5 10 -11 10 -5 0
-7 -4 -4 -10z"/>
<path d="M4455 2780 c3 -5 8 -10 11 -10 2 0 4 5 4 10 0 6 -5 10 -11 10 -5 0
-7 -4 -4 -10z"/>
<path d="M2495 2780 c3 -5 8 -10 11 -10 2 0 4 5 4 10 0 6 -5 10 -11 10 -5 0
-7 -4 -4 -10z"/>
<path d="M5733 2745 c0 -8 4 -12 9 -9 5 3 6 10 3 15 -9 13 -12 11 -12 -6z"/>
<path d="M5770 2740 c0 -5 5 -10 11 -10 5 0 7 5 4 10 -3 6 -8 10 -11 10 -2 0
-4 -4 -4 -10z"/>
<path d="M3850 2700 c0 -5 5 -10 11 -10 5 0 7 5 4 10 -3 6 -8 10 -11 10 -2 0
-4 -4 -4 -10z"/>
<path d="M3915 2680 c-3 -5 -1 -10 4 -10 6 0 11 5 11 10 0 6 -2 10 -4 10 -3 0
-8 -4 -11 -10z"/>
<path d="M3079 2553 c-13 -16 -12 -17 4 -4 16 13 21 21 13 21 -2 0 -10 -8 -17
-17z"/>
<path d="M4230 2459 c0 -5 5 -7 10 -4 6 3 10 8 10 11 0 2 -4 4 -10 4 -5 0 -10
-5 -10 -11z"/>
<path d="M4396 2433 c-6 -14 -5 -15 5 -6 7 7 10 15 7 18 -3 3 -9 -2 -12 -12z"/>
<path d="M4196 2413 c-6 -14 -5 -15 5 -6 7 7 10 15 7 18 -3 3 -9 -2 -12 -12z"/>
<path d="M4435 2401 c-3 -5 -2 -12 3 -15 5 -3 9 1 9 9 0 17 -3 19 -12 6z"/>
<path d="M4959 1518 c-5 -18 -6 -38 -1 -34 7 8 12 36 6 36 -2 0 -4 -1 -5 -2z"/>
<path d="M833 4035 c0 -8 4 -12 9 -9 5 3 6 10 3 15 -9 13 -12 11 -12 -6z"/>
<path d="M896 3982 c-3 -5 1 -9 9 -9 8 0 12 4 9 9 -3 4 -7 8 -9 8 -2 0 -6 -4
-9 -8z"/>
<path d="M1096 3942 c-3 -5 1 -9 9 -9 8 0 12 4 9 9 -3 4 -7 8 -9 8 -2 0 -6 -4
-9 -8z"/>
<path d="M1056 3922 c-3 -5 1 -9 9 -9 8 0 12 4 9 9 -3 4 -7 8 -9 8 -2 0 -6 -4
-9 -8z"/>
<path d="M1650 3179 c0 -5 5 -7 10 -4 6 3 10 8 10 11 0 2 -4 4 -10 4 -5 0 -10
-5 -10 -11z"/>
<path d="M1850 3180 c0 -5 5 -10 11 -10 5 0 7 5 4 10 -3 6 -8 10 -11 10 -2 0
-4 -4 -4 -10z"/>
<path d="M5975 3180 c3 -5 8 -10 11 -10 2 0 4 5 4 10 0 6 -5 10 -11 10 -5 0
-7 -4 -4 -10z"/>
<path d="M3615 2631 c-3 -5 -2 -12 3 -15 5 -3 9 1 9 9 0 17 -3 19 -12 6z"/>
<path d="M2414 2602 c4 -3 14 -7 22 -8 9 -1 13 0 10 4 -4 3 -14 7 -22 8 -9 1
-13 0 -10 -4z"/>
<path d="M2576 2602 c-3 -5 1 -9 9 -9 8 0 12 4 9 9 -3 4 -7 8 -9 8 -2 0 -6 -4
-9 -8z"/>
<path d="M2627 2599 c7 -7 15 -10 18 -7 3 3 -2 9 -12 12 -14 6 -15 5 -6 -5z"/>
<path d="M3690 2605 c0 -5 5 -17 10 -25 5 -8 10 -10 10 -5 0 6 -5 17 -10 25
-5 8 -10 11 -10 5z"/>
<path d="M3413 2569 c-2 -23 3 -25 10 -4 4 8 3 16 -1 19 -4 3 -9 -4 -9 -15z"/>
<path d="M2446 2562 c-3 -5 1 -9 9 -9 8 0 12 4 9 9 -3 4 -7 8 -9 8 -2 0 -6 -4
-9 -8z"/>
<path d="M2495 2559 c-3 -4 2 -6 10 -5 21 3 28 13 10 13 -9 0 -18 -4 -20 -8z"/>
<path d="M5806 2562 c-3 -5 1 -9 9 -9 8 0 12 4 9 9 -3 4 -7 8 -9 8 -2 0 -6 -4
-9 -8z"/>
<path d="M3355 2551 c-3 -5 -2 -12 3 -15 5 -3 9 1 9 9 0 17 -3 19 -12 6z"/>
<path d="M2790 2505 c0 -7 30 -13 34 -7 3 4 -4 9 -15 9 -10 1 -19 0 -19 -2z"/>
<path d="M5510 2336 c0 -2 8 -10 18 -17 15 -13 16 -12 3 4 -13 16 -21 21 -21
13z"/>
<path d="M3895 2020 c-3 -5 -1 -10 4 -10 6 0 11 5 11 10 0 6 -2 10 -4 10 -3 0
-8 -4 -11 -10z"/>
<path d="M4213 1895 c0 -8 4 -12 9 -9 5 3 6 10 3 15 -9 13 -12 11 -12 -6z"/>
<path d="M4376 1773 c-6 -14 -5 -15 5 -6 7 7 10 15 7 18 -3 3 -9 -2 -12 -12z"/>
<path d="M4506 1702 c-3 -5 1 -9 9 -9 8 0 12 4 9 9 -3 4 -7 8 -9 8 -2 0 -6 -4
-9 -8z"/>
<path d="M4635 1611 c-3 -5 -2 -12 3 -15 5 -3 9 1 9 9 0 17 -3 19 -12 6z"/>
<path d="M4913 1285 c0 -8 4 -12 9 -9 5 3 6 10 3 15 -9 13 -12 11 -12 -6z"/>
<path d="M4950 1281 c0 -6 4 -13 10 -16 6 -3 7 1 4 9 -7 18 -14 21 -14 7z"/>
<path d="M4994 1268 l-19 -23 23 19 c21 18 27 26 19 26 -2 0 -12 -10 -23 -22z"/>
</g>
</svg>
